<?xml version="1.0" encoding="UTF-8"?>
<!-- Generated by Pixelmator Pro 3.5.7 -->
<svg width="207" height="49" viewBox="0 0 207 49" xmlns="http://www.w3.org/2000/svg">
    <path id="Path" fill="#00a1fe" stroke="none" d="M 22.999701 3 C 35.702599 3 45.999699 13.2971 45.999699 26 L 45.999699 42.099998 C 45.999699 43.93 45.2728 45.685001 43.978802 46.979 C 42.684799 48.272999 40.929699 49 39.099701 49 L 24.1497 49 L 24.1497 38.909901 C 24.1497 36.607601 24.290001 34.2225 25.497499 32.262901 C 26.362 30.858601 27.518499 29.656601 28.888399 28.738501 C 30.258301 27.8204 31.809601 27.207701 33.437099 26.941799 L 33.877602 26.870501 C 34.0592 26.8085 34.216801 26.6912 34.3284 26.535101 C 34.439999 26.379 34.5 26.1919 34.5 26 C 34.5 25.8081 34.439999 25.621 34.3284 25.464899 C 34.216801 25.3088 34.0592 25.1915 33.877602 25.1294 L 33.437099 25.0581 C 31.059099 24.669701 28.863199 23.5441 27.159401 21.8403 C 25.455601 20.136499 24.330099 17.940599 23.941601 15.562599 L 23.8703 15.1222 C 23.808201 14.940601 23.690901 14.782898 23.5348 14.671299 C 23.3787 14.5597 23.191601 14.499699 22.999701 14.499699 C 22.8078 14.499699 22.6208 14.5597 22.464701 14.671299 C 22.308599 14.782898 22.191299 14.940601 22.1292 15.1222 L 22.057899 15.562599 C 21.7922 17.190201 21.179501 18.741501 20.2614 20.111401 C 19.3433 21.4814 18.141199 22.6378 16.736799 23.502199 C 14.7772 24.7097 12.3921 24.85 10.0898 24.85 L 0.027344 24.85 C 0.628794 12.681801 10.6832 3 22.999701 3 Z"/>
    <path id="path1" fill="#00a1fe" stroke="none" d="M 0 27.15 L 10.0901 27.15 C 12.3924 27.15 14.7775 27.2903 16.737101 28.497801 C 18.2689 29.4417 19.5583 30.7311 20.502199 32.262901 C 21.7097 34.2225 21.85 36.607601 21.85 38.909901 L 21.85 49 L 6.9 49 C 5.07001 49 3.31496 48.272999 2.02096 46.979 C 0.726962 45.685001 0 43.93 0 42.099998 L 0 27.15 Z M 46 5.299999 C 46 5.91 45.757702 6.49501 45.326302 6.92635 C 44.895 7.357681 44.310001 7.599998 43.700001 7.599998 C 43.09 7.599998 42.505001 7.357681 42.0737 6.92635 C 41.6423 6.49501 41.400002 5.91 41.400002 5.299999 C 41.400002 4.689999 41.6423 4.104988 42.0737 3.673649 C 42.505001 3.242321 43.09 3 43.700001 3 C 44.310001 3 44.895 3.242321 45.326302 3.673649 C 45.757702 4.104988 46 4.689999 46 5.299999 Z"/>
    <text id="Perskripsi" xml:space="preserve" x="55" y="32" font-family="Outfit" font-size="32" font-weight="600" fill="#2f2e2e">Perskripsi</text>
    <path id="path2" fill="#5f5f5f" stroke="none" d="M 59.98 46 L 59.98 44.548 L 62.127998 44.548 C 62.672001 44.548 63.147999 44.436001 63.556 44.212002 C 63.964001 43.98 64.279999 43.655998 64.503998 43.240002 C 64.736 42.824001 64.851997 42.332001 64.851997 41.764 C 64.851997 41.212002 64.736 40.731998 64.503998 40.324001 C 64.272003 39.908001 63.952 39.588001 63.543999 39.363998 C 63.136002 39.132 62.664001 39.015999 62.127998 39.015999 L 59.944 39.015999 L 59.944 37.563999 L 62.152 37.563999 C 62.776001 37.563999 63.352001 37.667999 63.880001 37.875999 C 64.416 38.084 64.879997 38.380001 65.272003 38.764 C 65.671997 39.139999 65.980003 39.584 66.195999 40.096001 C 66.419998 40.608002 66.531998 41.167999 66.531998 41.776001 C 66.531998 42.383999 66.419998 42.948002 66.195999 43.467999 C 65.980003 43.98 65.676003 44.428001 65.283997 44.812 C 64.891998 45.188 64.428001 45.48 63.891998 45.688 C 63.363998 45.896 62.792 46 62.175999 46 L 59.98 46 Z M 58.863998 46 L 58.863998 37.563999 L 60.495998 37.563999 L 60.495998 46 L 58.863998 46 Z M 70.084801 46.119999 C 69.556801 46.119999 69.080803 45.987999 68.656799 45.723999 C 68.232803 45.459999 67.900803 45.099998 67.660797 44.644001 C 67.420799 44.188 67.300797 43.675999 67.300797 43.108002 C 67.300797 42.532001 67.420799 42.015999 67.660797 41.560001 C 67.900803 41.104 68.232803 40.743999 68.656799 40.48 C 69.080803 40.216 69.556801 40.084 70.084801 40.084 C 70.500801 40.084 70.872803 40.167999 71.200798 40.335999 C 71.528801 40.504002 71.788803 40.740002 71.980797 41.043999 C 72.180801 41.34 72.288803 41.675999 72.304802 42.051998 L 72.304802 44.139999 C 72.288803 44.523998 72.180801 44.863998 71.980797 45.16 C 71.788803 45.456001 71.528801 45.692001 71.200798 45.868 C 70.872803 46.035999 70.500801 46.119999 70.084801 46.119999 Z M 70.372803 44.667999 C 70.812798 44.667999 71.1688 44.523998 71.440804 44.236 C 71.712799 43.939999 71.848801 43.560001 71.848801 43.096001 C 71.848801 42.792 71.784798 42.523998 71.656799 42.292 C 71.536797 42.051998 71.364799 41.868 71.1408 41.740002 C 70.924797 41.604 70.6688 41.535999 70.372803 41.535999 C 70.084801 41.535999 69.828796 41.604 69.604797 41.740002 C 69.388802 41.868 69.216797 42.051998 69.088799 42.292 C 68.968803 42.523998 68.908798 42.792 68.908798 43.096001 C 68.908798 43.408001 68.968803 43.683998 69.088799 43.924 C 69.216797 44.155998 69.388802 44.34 69.604797 44.476002 C 69.828796 44.604 70.084801 44.667999 70.372803 44.667999 Z M 71.764801 46 L 71.764801 44.439999 L 72.0168 43.023998 L 71.764801 41.632 L 71.764801 40.203999 L 73.324799 40.203999 L 73.324799 46 L 71.764801 46 Z M 76.707497 46.132 C 76.379501 46.132 76.055496 46.088001 75.735497 46 C 75.4235 45.911999 75.135498 45.792 74.871498 45.639999 C 74.607498 45.48 74.379501 45.287998 74.1875 45.063999 L 75.123497 44.116001 C 75.323502 44.34 75.555496 44.507999 75.819504 44.619999 C 76.083504 44.731998 76.375504 44.787998 76.695503 44.787998 C 76.9515 44.787998 77.143501 44.751999 77.2715 44.68 C 77.407501 44.608002 77.475502 44.5 77.475502 44.355999 C 77.475502 44.195999 77.403503 44.071999 77.259499 43.984001 C 77.123497 43.896 76.943497 43.824001 76.719498 43.768002 C 76.495499 43.703999 76.259499 43.636002 76.011497 43.563999 C 75.7715 43.484001 75.539497 43.383999 75.315498 43.264 C 75.091499 43.136002 74.907501 42.964001 74.763496 42.748001 C 74.627502 42.523998 74.559502 42.236 74.559502 41.883999 C 74.559502 41.515999 74.647499 41.195999 74.823502 40.924 C 75.0075 40.652 75.267502 40.439999 75.6035 40.287998 C 75.939499 40.136002 76.335503 40.060001 76.791496 40.060001 C 77.2715 40.060001 77.703499 40.144001 78.087502 40.312 C 78.4795 40.48 78.803497 40.731998 79.059502 41.068001 L 78.111504 42.015999 C 77.935501 41.799999 77.735497 41.644001 77.511497 41.548 C 77.295502 41.452 77.059502 41.403999 76.803497 41.403999 C 76.571503 41.403999 76.391502 41.439999 76.263496 41.512001 C 76.143501 41.584 76.083504 41.683998 76.083504 41.812 C 76.083504 41.956001 76.151497 42.068001 76.287498 42.147999 C 76.431503 42.228001 76.615501 42.299999 76.8395 42.363998 C 77.063499 42.419998 77.295502 42.487999 77.5355 42.568001 C 77.783501 42.639999 78.015503 42.743999 78.231499 42.880001 C 78.455498 43.015999 78.635498 43.195999 78.7715 43.419998 C 78.915497 43.644001 78.987503 43.931999 78.987503 44.284 C 78.987503 44.852001 78.783501 45.304001 78.375504 45.639999 C 77.967499 45.967999 77.411499 46.132 76.707497 46.132 Z M 83.947601 46 L 83.947601 42.675999 C 83.947601 42.332001 83.8396 42.051998 83.623596 41.835999 C 83.4076 41.619999 83.127602 41.512001 82.7836 41.512001 C 82.559601 41.512001 82.359596 41.560001 82.183601 41.655998 C 82.007599 41.751999 81.867599 41.888 81.763603 42.063999 C 81.667603 42.240002 81.619598 42.444 81.619598 42.675999 L 81.007599 42.363998 C 81.007599 41.908001 81.1036 41.512001 81.295601 41.175999 C 81.487602 40.832001 81.751602 40.563999 82.087601 40.372002 C 82.431602 40.18 82.823601 40.084 83.263603 40.084 C 83.703598 40.084 84.091599 40.18 84.427597 40.372002 C 84.771599 40.563999 85.039597 40.827999 85.231598 41.164001 C 85.423599 41.5 85.5196 41.888 85.5196 42.327999 L 85.5196 46 L 83.947601 46 Z M 80.0476 46 L 80.0476 37.324001 L 81.619598 37.324001 L 81.619598 46 L 80.0476 46 Z M 90.001801 46.119999 C 89.5858 46.119999 89.209801 46.032001 88.873802 45.855999 C 88.537804 45.68 88.269798 45.439999 88.069801 45.136002 C 87.869797 44.832001 87.761803 44.492001 87.745796 44.116001 L 87.745796 42.051998 C 87.761803 41.675999 87.869797 41.34 88.069801 41.043999 C 88.277802 40.740002 88.549797 40.504002 88.885803 40.335999 C 89.221802 40.167999 89.593803 40.084 90.001801 40.084 C 90.537804 40.084 91.017799 40.216 91.441803 40.48 C 91.865799 40.743999 92.1978 41.104 92.437798 41.560001 C 92.685799 42.015999 92.809799 42.532001 92.809799 43.108002 C 92.809799 43.675999 92.685799 44.188 92.437798 44.644001 C 92.1978 45.099998 91.865799 45.459999 91.441803 45.723999 C 91.017799 45.987999 90.537804 46.119999 90.001801 46.119999 Z M 89.737801 44.667999 C 90.025803 44.667999 90.277802 44.604 90.493797 44.476002 C 90.717796 44.34 90.889801 44.155998 91.009804 43.924 C 91.137802 43.683998 91.201797 43.408001 91.201797 43.096001 C 91.201797 42.792 91.137802 42.523998 91.009804 42.292 C 90.889801 42.051998 90.717796 41.868 90.493797 41.740002 C 90.269798 41.604 90.013802 41.535999 89.7258 41.535999 C 89.437798 41.535999 89.181801 41.604 88.957802 41.740002 C 88.741798 41.868 88.569801 42.051998 88.441803 42.292 C 88.3218 42.523998 88.261803 42.792 88.261803 43.096001 C 88.261803 43.408001 88.3218 43.683998 88.441803 43.924 C 88.569801 44.155998 88.745796 44.34 88.969803 44.476002 C 89.193802 44.604 89.449799 44.667999 89.737801 44.667999 Z M 86.785797 46 L 86.785797 37.324001 L 88.357803 37.324001 L 88.357803 41.632 L 88.093803 43.023998 L 88.345802 44.439999 L 88.345802 46 L 86.785797 46 Z M 96.564499 46.119999 C 95.980499 46.119999 95.452499 45.987999 94.980499 45.723999 C 94.516502 45.452 94.144501 45.088001 93.864502 44.632 C 93.592499 44.167999 93.456497 43.652 93.456497 43.084 C 93.456497 42.515999 93.592499 42.007999 93.864502 41.560001 C 94.136497 41.104 94.508499 40.743999 94.980499 40.48 C 95.452499 40.208 95.976501 40.071999 96.552498 40.071999 C 97.144501 40.071999 97.672501 40.208 98.136497 40.48 C 98.608498 40.743999 98.980499 41.104 99.252502 41.560001 C 99.524498 42.007999 99.6605 42.515999 99.6605 43.084 C 99.6605 43.652 99.524498 44.167999 99.252502 44.632 C 98.980499 45.088001 98.608498 45.452 98.136497 45.723999 C 97.672501 45.987999 97.148499 46.119999 96.564499 46.119999 Z M 96.552498 44.655998 C 96.848503 44.655998 97.108498 44.591999 97.332497 44.464001 C 97.564499 44.327999 97.740501 44.144001 97.860497 43.911999 C 97.988503 43.672001 98.052498 43.400002 98.052498 43.096001 C 98.052498 42.792 97.988503 42.523998 97.860497 42.292 C 97.732498 42.060001 97.556503 41.880001 97.332497 41.751999 C 97.108498 41.616001 96.848503 41.548 96.552498 41.548 C 96.264503 41.548 96.008499 41.616001 95.7845 41.751999 C 95.560501 41.880001 95.384499 42.060001 95.2565 42.292 C 95.128502 42.523998 95.064499 42.792 95.064499 43.096001 C 95.064499 43.400002 95.128502 43.672001 95.2565 43.911999 C 95.384499 44.144001 95.560501 44.327999 95.7845 44.464001 C 96.008499 44.591999 96.264503 44.655998 96.552498 44.655998 Z M 103.097 46.119999 C 102.569 46.119999 102.093002 45.987999 101.668999 45.723999 C 101.245003 45.459999 100.913002 45.099998 100.672997 44.644001 C 100.432999 44.188 100.313004 43.675999 100.313004 43.108002 C 100.313004 42.532001 100.432999 42.015999 100.672997 41.560001 C 100.913002 41.104 101.245003 40.743999 101.668999 40.48 C 102.093002 40.216 102.569 40.084 103.097 40.084 C 103.513 40.084 103.885002 40.167999 104.212997 40.335999 C 104.541 40.504002 104.801003 40.740002 104.992996 41.043999 C 105.193001 41.34 105.301003 41.675999 105.317001 42.051998 L 105.317001 44.139999 C 105.301003 44.523998 105.193001 44.863998 104.992996 45.16 C 104.801003 45.456001 104.541 45.692001 104.212997 45.868 C 103.885002 46.035999 103.513 46.119999 103.097 46.119999 Z M 103.385002 44.667999 C 103.824997 44.667999 104.181 44.523998 104.453003 44.236 C 104.724998 43.939999 104.861 43.560001 104.861 43.096001 C 104.861 42.792 104.796997 42.523998 104.668999 42.292 C 104.549004 42.051998 104.376999 41.868 104.153 41.740002 C 103.936996 41.604 103.681 41.535999 103.385002 41.535999 C 103.097 41.535999 102.841003 41.604 102.616997 41.740002 C 102.401001 41.868 102.228996 42.051998 102.100998 42.292 C 101.981003 42.523998 101.920998 42.792 101.920998 43.096001 C 101.920998 43.408001 101.981003 43.683998 102.100998 43.924 C 102.228996 44.155998 102.401001 44.34 102.616997 44.476002 C 102.841003 44.604 103.097 44.667999 103.385002 44.667999 Z M 104.777 46 L 104.777 44.439999 L 105.028999 43.023998 L 104.777 41.632 L 104.777 40.203999 L 106.336998 40.203999 L 106.336998 46 L 104.777 46 Z M 107.726997 46 L 107.726997 40.203999 L 109.299004 40.203999 L 109.299004 46 L 107.726997 46 Z M 109.299004 42.796001 L 108.686996 42.388 C 108.759003 41.675999 108.967003 41.116001 109.310997 40.708 C 109.654999 40.292 110.151001 40.084 110.799004 40.084 C 111.079002 40.084 111.331001 40.132 111.555 40.228001 C 111.778999 40.316002 111.983002 40.464001 112.167 40.672001 L 111.182999 41.799999 C 111.095001 41.703999 110.987 41.632 110.859001 41.584 C 110.738998 41.535999 110.598999 41.512001 110.439003 41.512001 C 110.102997 41.512001 109.827003 41.619999 109.611 41.835999 C 109.403 42.043999 109.299004 42.363998 109.299004 42.796001 Z M 115.002998 46.119999 C 114.467003 46.119999 113.987 45.987999 113.563004 45.723999 C 113.139 45.459999 112.803001 45.099998 112.555 44.644001 C 112.315002 44.188 112.195 43.675999 112.195 43.108002 C 112.195 42.532001 112.315002 42.015999 112.555 41.560001 C 112.803001 41.104 113.135002 40.743999 113.551003 40.48 C 113.974998 40.216 114.459 40.084 115.002998 40.084 C 115.418999 40.084 115.791 40.167999 116.119003 40.335999 C 116.455002 40.504002 116.723 40.740002 116.922997 41.043999 C 117.130997 41.34 117.242996 41.675999 117.259003 42.051998 L 117.259003 44.116001 C 117.242996 44.492001 117.135002 44.832001 116.934998 45.136002 C 116.735001 45.439999 116.467003 45.68 116.130997 45.855999 C 115.794998 46.032001 115.418999 46.119999 115.002998 46.119999 Z M 115.266998 44.667999 C 115.563004 44.667999 115.819 44.604 116.035004 44.476002 C 116.259003 44.34 116.431 44.155998 116.551003 43.924 C 116.679001 43.683998 116.742996 43.408001 116.742996 43.096001 C 116.742996 42.792 116.679001 42.523998 116.551003 42.292 C 116.431 42.051998 116.259003 41.868 116.035004 41.740002 C 115.819 41.604 115.567001 41.535999 115.278999 41.535999 C 114.983002 41.535999 114.723 41.604 114.499001 41.740002 C 114.282997 41.875999 114.111 42.060001 113.983002 42.292 C 113.862999 42.523998 113.803001 42.792 113.803001 43.096001 C 113.803001 43.408001 113.862999 43.683998 113.983002 43.924 C 114.111 44.155998 114.287003 44.34 114.511002 44.476002 C 114.735001 44.604 114.987 44.667999 115.266998 44.667999 Z M 118.219002 46 L 116.658997 46 L 116.658997 44.439999 L 116.911003 43.023998 L 116.647003 41.632 L 116.647003 37.324001 L 118.219002 37.324001 L 118.219002 46 Z M 123.321999 42.868 L 123.321999 41.535999 L 125.278 41.535999 C 125.533997 41.535999 125.765999 41.484001 125.973999 41.380001 C 126.181999 41.276001 126.346001 41.127998 126.466003 40.936001 C 126.585999 40.736 126.646004 40.495998 126.646004 40.216 C 126.646004 39.944 126.585999 39.708 126.466003 39.507999 C 126.346001 39.307999 126.181999 39.155998 125.973999 39.051998 C 125.765999 38.948002 125.533997 38.896 125.278 38.896 L 123.321999 38.896 L 123.321999 37.563999 L 125.445999 37.563999 C 125.982002 37.563999 126.461998 37.672001 126.886002 37.888 C 127.318001 38.104 127.657997 38.411999 127.905998 38.812 C 128.154007 39.203999 128.278 39.672001 128.278 40.216 C 128.278 40.759998 128.154007 41.231998 127.905998 41.632 C 127.657997 42.023998 127.318001 42.327999 126.886002 42.543999 C 126.461998 42.759998 125.982002 42.868 125.445999 42.868 L 123.321999 42.868 Z M 122.122002 46 L 122.122002 37.563999 L 123.753998 37.563999 L 123.753998 46 L 122.122002 46 Z M 131.503006 46.119999 C 130.975006 46.119999 130.498993 45.987999 130.074997 45.723999 C 129.651001 45.459999 129.319 45.099998 129.078995 44.644001 C 128.839005 44.188 128.718994 43.675999 128.718994 43.108002 C 128.718994 42.532001 128.839005 42.015999 129.078995 41.560001 C 129.319 41.104 129.651001 40.743999 130.074997 40.48 C 130.498993 40.216 130.975006 40.084 131.503006 40.084 C 131.919006 40.084 132.291 40.167999 132.619003 40.335999 C 132.947006 40.504002 133.207001 40.740002 133.399002 41.043999 C 133.598999 41.34 133.707001 41.675999 133.723007 42.051998 L 133.723007 44.139999 C 133.707001 44.523998 133.598999 44.863998 133.399002 45.16 C 133.207001 45.456001 132.947006 45.692001 132.619003 45.868 C 132.291 46.035999 131.919006 46.119999 131.503006 46.119999 Z M 131.791 44.667999 C 132.231003 44.667999 132.587006 44.523998 132.858994 44.236 C 133.130997 43.939999 133.266998 43.560001 133.266998 43.096001 C 133.266998 42.792 133.203003 42.523998 133.074997 42.292 C 132.955002 42.051998 132.783005 41.868 132.559006 41.740002 C 132.343002 41.604 132.087006 41.535999 131.791 41.535999 C 131.503006 41.535999 131.246994 41.604 131.022995 41.740002 C 130.807007 41.868 130.634995 42.051998 130.507004 42.292 C 130.386993 42.523998 130.326996 42.792 130.326996 43.096001 C 130.326996 43.408001 130.386993 43.683998 130.507004 43.924 C 130.634995 44.155998 130.807007 44.34 131.022995 44.476002 C 131.246994 44.604 131.503006 44.667999 131.791 44.667999 Z M 133.182999 46 L 133.182999 44.439999 L 133.434998 43.023998 L 133.182999 41.632 L 133.182999 40.203999 L 134.742996 40.203999 L 134.742996 46 L 133.182999 46 Z M 140.033997 46 L 140.033997 42.675999 C 140.033997 42.332001 139.925995 42.051998 139.710007 41.835999 C 139.494003 41.619999 139.214005 41.512001 138.869995 41.512001 C 138.645996 41.512001 138.445999 41.560001 138.270004 41.655998 C 138.093994 41.751999 137.953995 41.888 137.850006 42.063999 C 137.753998 42.240002 137.705994 42.444 137.705994 42.675999 L 137.093994 42.363998 C 137.093994 41.908001 137.190002 41.512001 137.382004 41.175999 C 137.582001 40.832001 137.854004 40.563999 138.197998 40.372002 C 138.550003 40.18 138.945999 40.084 139.386002 40.084 C 139.809998 40.084 140.190002 40.192001 140.526001 40.408001 C 140.862 40.616001 141.126007 40.891998 141.317993 41.236 C 141.509995 41.571999 141.604996 41.936001 141.604996 42.327999 L 141.604996 46 L 140.033997 46 Z M 136.134003 46 L 136.134003 40.203999 L 137.705994 40.203999 L 137.705994 46 L 136.134003 46 Z M 145.643997 46.119999 C 145.035995 46.119999 144.496002 45.992001 144.024002 45.736 C 143.552002 45.472 143.175995 45.112 142.895996 44.655998 C 142.623993 44.200001 142.488007 43.68 142.488007 43.096001 C 142.488007 42.52 142.619995 42.007999 142.884003 41.560001 C 143.156006 41.104 143.524002 40.743999 143.988007 40.48 C 144.451996 40.208 144.968002 40.071999 145.535995 40.071999 C 146.095993 40.071999 146.587997 40.200001 147.011993 40.456001 C 147.444 40.703999 147.779999 41.048 148.020004 41.487999 C 148.268005 41.919998 148.391998 42.411999 148.391998 42.964001 C 148.391998 43.068001 148.384003 43.175999 148.367996 43.287998 C 148.360001 43.391998 148.339996 43.512001 148.307999 43.647999 L 143.436005 43.66 L 143.436005 42.484001 L 147.576004 42.472 L 146.940002 42.964001 C 146.923996 42.619999 146.860001 42.332001 146.748001 42.099998 C 146.643997 41.868 146.488007 41.692001 146.279999 41.571999 C 146.080002 41.444 145.832001 41.380001 145.535995 41.380001 C 145.223999 41.380001 144.951996 41.452 144.720001 41.596001 C 144.488007 41.731998 144.307999 41.928001 144.179993 42.183998 C 144.059998 42.431999 144 42.728001 144 43.071999 C 144 43.424 144.063995 43.731998 144.192001 43.995998 C 144.328003 44.251999 144.520004 44.452 144.768005 44.596001 C 145.016006 44.731998 145.304001 44.799999 145.632004 44.799999 C 145.927994 44.799999 146.195999 44.751999 146.436005 44.655998 C 146.675995 44.551998 146.884003 44.400002 147.059998 44.200001 L 147.983994 45.124001 C 147.703995 45.452 147.360001 45.700001 146.951996 45.868 C 146.552002 46.035999 146.115997 46.119999 145.643997 46.119999 Z M 149.363998 46 L 149.363998 37.324001 L 150.936005 37.324001 L 150.936005 46 L 149.363998 46 Z"/>
</svg>
