<?xml version="1.0" encoding="UTF-8"?>
<!-- Generated by Pixelmator Pro 3.5.7 -->
<svg width="66" height="65" viewBox="0 0 66 65" xmlns="http://www.w3.org/2000/svg">
    <path id="Path" fill="#f6f8ff" stroke="none" d="M 10 0 L 56 0 C 61.522846 0 66 4.477154 66 10 L 66 55 C 66 60.522846 61.522846 65 56 65 L 10 65 C 4.477152 65 0 60.522846 0 55 L 0 10 C -0 4.477154 4.477152 0 10 0 Z"/>
    <path id="path1" fill="#f2d4b7" stroke="none" d="M 43.196201 20.6446 L 21.1817 20.6446 C 20.404699 20.6446 19.8867 20.126602 19.8867 19.349701 C 19.8867 18.572701 20.404699 18.054703 21.1817 18.054703 L 43.196201 18.054703 C 43.973202 18.054703 44.491199 18.572701 44.491199 19.349701 C 44.491199 20.126602 43.973202 20.6446 43.196201 20.6446 Z"/>
    <path id="path2" fill="#f2d4b7" stroke="none" d="M 50.6287 50.4468 L 47.025799 46.872299 C 47.926498 45.595699 48.3125 44.191502 48.3125 42.659599 C 48.3125 38.4468 44.838299 35 40.7206 35 C 36.602901 35 33 38.4468 33 42.659599 C 33 46.872299 36.4743 50.319099 40.5919 50.319099 C 42.136002 50.319099 43.680199 49.808498 44.838299 49.042599 L 48.4412 52.617001 C 48.955898 53.127701 49.985298 53.127701 50.5 52.617001 C 51.143398 51.978699 51.143398 50.957401 50.6287 50.4468 Z"/>
    <path id="path3" fill="#00a1fe" stroke="none" d="M 30.5 42.285702 C 30.5 36.628601 35.245499 32 40.913601 32 C 42.363602 32 43.681801 32.257099 45 32.7714 L 45 23 C 45 22.2286 44.472698 21.714302 43.681801 21.714302 L 23.9091 21.714302 L 21.272699 21.714302 C 19.822701 21.714302 18.6364 20.557098 18.6364 19.142899 C 18.6364 17.7286 19.822701 16.5714 21.272699 16.5714 L 43.681801 16.5714 C 44.472698 16.5714 45 16.057098 45 15.285698 C 45 14.514301 44.472698 14 43.681801 14 L 21.272699 14 C 18.3727 14 16 16.314301 16 19.142899 L 16 44.857101 C 16 47.685699 18.3727 50 21.272699 50 L 23.9091 50 L 34.190899 50 C 31.950001 48.0714 30.5 45.371399 30.5 42.285702 Z"/>
</svg>
