<?xml version="1.0" encoding="UTF-8"?>
<!-- Generated by Pixelmator Pro 3.5.7 -->
<svg width="66" height="65" viewBox="0 0 66 65" xmlns="http://www.w3.org/2000/svg">
    <path id="Path" fill="#f6f8ff" stroke="none" d="M 10 0 L 56 0 C 61.522846 0 66 4.477154 66 10 L 66 55 C 66 60.522846 61.522846 65 56 65 L 10 65 C 4.477152 65 0 60.522846 0 55 L 0 10 C -0 4.477154 4.477152 0 10 0 Z"/>
    <path id="path1" fill="#f7dece" stroke="none" d="M 26.613001 26.149902 L 26.8405 26.130402 C 26.926701 26.120701 27.0047 26.089798 27.0697 26.0443 L 27.068001 26.045898 C 27.285801 26.7967 27.552299 27.586502 27.885401 28.413601 C 28.312799 29.495899 28.7337 30.3848 29.205 31.242798 L 29.139999 31.112801 C 29.101 31.7043 29.0539 32.312099 28.9921 32.900398 C 28.962799 33.262798 28.8913 33.6008 28.782499 33.9193 L 28.7906 33.889999 C 28.771099 33.898201 28.7435 37.2701 28.7435 37.2701 C 28.7451 39.4688 30.267799 41.310001 32.3153 41.799198 L 32.347801 41.805698 C 32.440498 41.57 32.6647 41.405899 32.928001 41.405899 L 33.860802 41.405899 C 34.122398 41.4091 34.3466 41.571602 34.439301 41.8008 L 34.440899 41.805698 C 36.525799 41.314899 38.055 39.473701 38.063099 37.273399 C 38.063099 37.273399 38.006302 33.914398 37.977001 33.891701 C 37.8876 33.6073 37.816101 33.272499 37.778702 32.928001 L 37.7771 32.903599 C 37.7202 32.312099 37.682899 31.719002 37.6292 31.1161 C 38.030602 30.3913 38.4515 29.503998 38.821999 28.5891 L 38.883801 28.416901 C 39.2169 27.589699 39.4753 26.801598 39.701199 26.049202 C 39.764599 26.0947 39.842602 26.1255 39.927101 26.1353 L 39.928699 26.1353 L 40.157799 26.1548 C 40.434101 26.183998 40.677799 25.956497 40.7006 25.603901 L 40.947601 22.4659 C 40.947601 22.464302 40.947601 22.4627 40.947601 22.4627 C 40.947601 22.1978 40.749298 21.98 40.494202 21.947502 L 40.491001 21.947502 L 40.463299 21.947502 C 40.526699 21.490898 40.5625 20.964401 40.5625 20.429703 C 40.5625 19.262901 40.390202 18.135201 40.070099 17.073997 L 40.091202 17.156898 C 39.1535 15.099602 37.294498 13.606102 35.055199 13.188499 L 35.012901 13.181999 C 34.531898 13.082901 33.971298 13.0163 33.3992 13 L 33.384602 13 L 33.365101 13 C 32.7817 13.011398 32.2211 13.076401 31.678301 13.191799 L 31.736799 13.181999 C 29.4585 13.611 27.602699 15.104401 26.676399 17.112999 L 26.658501 17.156898 C 26.3563 18.131901 26.1824 19.253201 26.1824 20.413498 C 26.1824 20.954597 26.219801 21.487602 26.2929 22.007698 L 26.2864 21.947502 C 26.028 21.976799 25.8281 22.192902 25.8281 22.4562 L 25.8281 22.467499 L 26.0751 25.605499 C 26.0979 25.966301 26.3449 26.183998 26.611401 26.1548 L 26.613001 26.149902 Z"/>
    <path id="path2" fill="#00a1fe" stroke="none" d="M 50.803398 46.917099 C 50.689701 41.977001 50.195702 40.859001 49.9291 40.1017 C 49.823502 39.797798 49.7374 37.743698 46.344299 36.411201 C 44.264198 35.592201 41.579601 35.575901 39.3078 34.615501 L 39.3078 37.287102 C 39.302898 40.160198 37.245602 42.550598 34.523701 43.0723 L 34.486301 43.0788 C 34.435902 43.3745 34.1824 43.595501 33.878502 43.598801 L 33.8493 43.598801 L 33.8493 45.613899 C 33.8493 47.583401 35.445099 49.179199 37.4146 49.179199 C 39.384201 49.179199 40.98 47.583401 40.98 45.613899 L 40.98 44.2066 C 39.992001 44.058701 39.242802 43.2169 39.242802 42.1996 C 39.242802 41.080002 40.151199 40.1716 41.270901 40.1716 C 42.390499 40.1716 43.298901 41.080002 43.298901 42.1996 C 43.298901 43.086899 42.7285 43.8409 41.935501 44.117199 L 41.920898 44.122101 L 41.920898 45.613899 L 41.920898 45.690201 C 41.920898 48.179798 39.902599 50.198101 37.412998 50.198101 C 34.923401 50.198101 32.905102 48.179798 32.905102 45.690201 C 32.905102 45.662601 32.905102 45.6366 32.905102 45.609001 L 32.905102 45.612202 L 32.905102 43.5793 C 32.615898 43.559799 32.381901 43.341999 32.3363 43.0625 L 32.3363 43.059299 C 29.59 42.524601 27.5424 40.1423 27.5359 37.280602 L 27.5359 34.587898 C 25.2544 35.567799 22.553499 35.587299 20.462099 36.407902 C 17.0592 37.738899 16.981199 39.788101 16.877199 40.096802 C 16.617201 40.8573 16.116699 41.970501 16.003 46.913898 C 15.9835 47.5639 16.003 48.560101 17.962799 49.431099 C 22.2302 51.1049 27.727699 51.624901 33.147202 51.998699 L 33.667301 51.998699 C 39.098202 51.628201 44.587601 51.109798 48.8517 49.431099 C 50.803398 48.564899 50.821301 47.5737 50.803398 46.917099 Z M 26.9461 44.9021 L 24.9212 44.9021 L 24.9212 46.935001 L 23.474899 46.935001 L 23.474899 44.9086 L 21.4501 44.9086 L 21.4501 43.462299 L 23.474899 43.462299 L 23.474899 41.4375 L 24.9212 41.4375 L 24.9212 43.462299 L 26.9461 43.462299 L 26.9461 44.9021 Z"/>
    <path id="path3" fill="#000000" stroke="none" d="M 42.367001 42.183201 C 42.367001 41.578701 41.877899 41.087898 41.2733 41.087898 C 40.6688 41.087898 40.179699 41.577 40.179699 42.181599 C 40.179699 42.786098 40.6688 43.2752 41.2733 43.2752 C 41.876202 43.2752 42.365398 42.786098 42.367001 42.183201 Z"/>
</svg>
