<?xml version="1.0" encoding="UTF-8"?>
<!-- Generated by Pixelmator Pro 3.5.7 -->
<svg width="66" height="65" viewBox="0 0 66 65" xmlns="http://www.w3.org/2000/svg">
    <path id="Path" fill="#f6f8ff" stroke="none" d="M 10 0 L 56 0 C 61.522846 0 66 4.477154 66 10 L 66 55 C 66 60.522846 61.522846 65 56 65 L 10 65 C 4.477152 65 0 60.522846 0 55 L 0 10 C -0 4.477154 4.477152 0 10 0 Z"/>
    <g id="moneybag-2">
        <g id="Group">
            <path id="path1" fill="#00a1fe" stroke="none" d="M 49.720867 43.116524 C 49.720867 52.398369 42.200546 55 32.918701 55 C 23.636858 55 16.116531 52.384819 16.116531 43.116524 C 16.116531 33.834686 23.636858 21.409214 32.918701 21.409214 C 42.200546 21.409214 49.720867 33.848236 49.720867 43.116524 Z"/>
            <path id="path2" fill="#00a1fe" stroke="none" d="M 32.539295 20.826553 L 33.01355 20.826553 L 35.276424 20.826553 L 40.69648 14.065037 L 40.69648 11.476963 L 36.956638 11.476963 L 36.956638 10 L 33.01355 10 L 32.539295 10 L 28.596207 10 L 28.596207 11.476963 L 24.856371 11.476963 L 24.856371 14.065037 L 30.276424 20.826553 Z"/>
        </g>
        <g id="g1">
            <path id="path3" fill="#008de2" stroke="none" d="M 36.956638 11.476963 L 33.433605 20.149052 L 39.12466 11.476963 Z"/>
            <path id="path4" fill="#008de2" stroke="none" d="M 28.596207 11.476963 L 32.146343 20.149052 L 26.455284 11.476963 Z"/>
            <path id="path5" fill="#008de2" stroke="none" d="M 30.317074 25.176151 L 32.593494 22.804878 L 28.90786 25.176151 Z"/>
            <path id="path6" fill="#008de2" stroke="none" d="M 35.69648 25.176151 L 33.420055 22.804878 L 37.09214 25.176151 Z"/>
            <path id="path7" fill="#008de2" stroke="none" d="M 36.116535 21.504063 C 36.116535 21.910568 35.791328 22.235771 35.384823 22.235771 L 30.344173 22.235771 C 29.93767 22.235771 29.612467 21.910568 29.612467 21.504063 L 29.612467 21.504063 C 29.612467 21.097561 29.93767 20.772358 30.344173 20.772358 L 35.384823 20.772358 C 35.791328 20.772358 36.116535 21.097561 36.116535 21.504063 L 36.116535 21.504063 Z"/>
            <path id="path8" fill="#008de2" stroke="none" d="M 32.241196 10 L 33.433605 10 L 32.756096 19.796749 Z"/>
            <path id="path9" fill="#ffffff" stroke="none" d="M 39.043358 34.241192 C 39.043358 35.406502 37.715446 36.246613 37.634144 36.138206 C 36.644989 34.986446 34.951221 34.13279 33.23035 34.13279 C 31.482386 34.13279 30.411926 34.918697 30.411926 36.084007 C 30.411926 37.439022 31.848238 37.804878 33.853661 38.252029 C 36.252033 38.766937 39.395664 39.742546 39.395664 43.143631 C 39.395664 45.772358 37.566395 47.601624 34.517616 48.062332 L 34.517616 49.078587 C 34.517616 50.271004 34.043362 50.853657 33.01355 50.853657 L 32.878052 50.853657 C 31.780487 50.853657 31.387537 50.311653 31.387537 49.078587 L 31.387537 48.116531 C 28.230352 47.777779 26.441734 46.341465 26.441734 44.891594 C 26.441734 43.766937 27.688347 42.967476 27.796749 43.062325 C 28.78591 44.254742 30.710028 45.243904 32.74255 45.243904 C 34.598919 45.243904 35.655827 44.457993 35.655827 43.292679 C 35.655827 41.856369 34.043362 41.463417 32.132793 41.029808 C 29.842819 40.528454 26.821138 39.620598 26.821138 36.178864 C 26.821138 33.672089 28.596207 31.883469 31.401083 31.355015 L 31.401083 30.392952 C 31.401083 29.200539 31.848238 28.617886 32.891602 28.617886 L 33.054203 28.617886 C 34.124664 28.617886 34.544716 29.159889 34.544716 30.392952 L 34.544716 31.273712 C 37.457996 31.598915 39.043358 32.899727 39.043358 34.241192 Z"/>
        </g>
    </g>
</svg>
