<?xml version="1.0" encoding="UTF-8"?>
<!-- Generated by Pixelmator Pro 3.5.7 -->
<svg width="22" height="22" viewBox="0 0 22 22" xmlns="http://www.w3.org/2000/svg">
    <path id="Path" fill="#00a1fe" stroke="none" d="M 10.6637 16.5578 L 16.1637 13.3825 L 10.6637 10.207 L 10.6637 12.1603 L 5.83594 12.1603 L 5.83594 14.6047 L 10.6637 14.6047 L 10.6637 16.5578 Z"/>
    <path id="path1" fill="#00a1fe" stroke="none" d="M 6.11285 4.88867 C 5.43784 4.88867 4.89062 5.43589 4.89062 6.110889 C 4.89062 6.7859 5.43784 7.33312 6.11285 7.33312 L 15.8906 7.33312 C 16.565701 7.33312 17.112801 6.7859 17.112801 6.110889 C 17.112801 5.43589 16.565701 4.88867 15.8906 4.88867 L 6.11285 4.88867 Z"/>
    <path id="path2" fill="#00a1fe" fill-rule="evenodd" stroke="none" d="M 3.66667 0 C 1.64163 0 0 1.64163 0 3.66667 L 0 18.3333 C 0 20.3584 1.64163 22 3.66667 22 L 18.3333 22 C 20.3584 22 22 20.3584 22 18.3333 L 22 3.66667 C 22 1.64163 20.3584 0 18.3333 0 L 3.66667 0 Z M 18.3333 2.444439 L 3.66667 2.444439 C 2.99166 2.444439 2.44444 2.991661 2.44444 3.66667 L 2.44444 18.3333 C 2.44444 19.0084 2.99166 19.555599 3.66667 19.555599 L 18.3333 19.555599 C 19.0084 19.555599 19.555599 19.0084 19.555599 18.3333 L 19.555599 3.66667 C 19.555599 2.991661 19.0084 2.444439 18.3333 2.444439 Z"/>
</svg>
