<?xml version="1.0" encoding="UTF-8"?>
<!-- Generated by Pixelmator Pro 3.5.7 -->
<svg width="66" height="66" viewBox="0 0 66 66" xmlns="http://www.w3.org/2000/svg">
    <path id="Path" fill="#f6f8ff" stroke="none" d="M 10 0 L 56 0 C 61.522846 0 66 4.477154 66 10 L 66 56 C 66 61.522846 61.522846 66 56 66 L 10 66 C 4.477152 66 0 61.522846 0 56 L 0 10 C 0 4.477154 4.477152 0 10 0 Z"/>
    <path id="path1" fill="#e6af78" fill-opacity="0.56" stroke="none" d="M 39.899601 41.8116 L 39.899601 36.380901 L 25.5508 36.380901 L 25.5508 41.8116 L 32.725201 48.018299 L 39.899601 41.8116 Z"/>
    <path id="path2" fill="#00a1fe" stroke="none" d="M 50.994202 44.351501 L 41.129902 42.092602 C 40.9809 42.058498 40.843899 42.0005 40.715698 41.930302 L 32.7262 46.466202 L 25.0483 41.710899 C 24.8496 41.893002 24.6028 42.0284 24.322599 42.092701 L 14.4584 44.351601 C 13.018 44.6814 12 45.932301 12 47.372398 L 12 53.4487 C 12 54.305801 12.7138 55.000401 13.5943 55.000401 L 51.858002 55.000401 C 52.738602 55.000401 53.452301 54.305698 53.452301 53.4487 L 53.452301 47.372398 C 53.452499 45.932201 52.434502 44.681198 50.994202 44.351501 Z"/>
    <path id="path3" fill="#d29b6e" fill-opacity="0.34" stroke="none" d="M 25.5508 36.380901 L 25.5508 42.110901 C 34.5886 45.279999 39.899601 37.348499 39.899601 37.348499 L 39.899601 36.380901 L 25.5508 36.380901 L 25.5508 36.380901 Z"/>
    <path id="path4" fill="#f7dece" stroke="none" d="M 22.3633 18.537102 L 23.057899 33.4109 C 23.122801 34.8004 23.8228 36.089001 24.966101 36.9235 L 28.262199 39.329399 C 29.090099 39.933701 30.097099 40.260502 31.132 40.260502 L 34.320702 40.260502 C 35.355598 40.260502 36.362598 39.9338 37.190498 39.329399 L 40.486599 36.9235 C 41.629902 36.088902 42.329899 34.800499 42.394798 33.4109 L 43.089401 18.537102 L 22.3633 18.537102 Z"/>
    <path id="path5" fill="#f2d4b7" stroke="none" d="M 30.334999 21.640499 C 33.523602 21.640499 38.306499 20.8647 39.441002 18.537102 L 22.3633 18.537102 L 23.057899 33.4109 C 23.122801 34.8004 23.8228 36.088902 24.9662 36.9235 L 28.2623 39.329399 C 29.0902 39.933701 30.0972 40.260502 31.132099 40.260502 L 32.726398 40.260502 C 31.132099 40.260502 27.943399 37.157101 27.943399 33.278 C 27.943399 31.380798 27.943399 26.295502 27.943399 23.968002 C 27.943399 23.192101 28.740601 21.640499 30.334999 21.640499 Z"/>
    <path id="path6" fill="#2698dd" stroke="none" d="M 17.856001 49.963299 L 12.6905 45.4473 C 12.2577 45.980701 12.0039 46.651901 12.0039 47.370499 L 12.0039 53.4468 C 12.0039 54.303902 12.7177 54.998501 13.5982 54.998501 L 19.178301 54.998501 L 19.178301 52.849201 C 19.1782 51.748199 18.6975 50.699001 17.856001 49.963299 Z"/>
    <path id="path7" fill="#2698dd" stroke="none" d="M 47.6035 49.963299 L 52.7691 45.4473 C 53.2019 45.980701 53.4557 46.651901 53.4557 47.370499 L 53.4557 53.4468 C 53.4557 54.303902 52.741901 54.998501 51.861401 54.998501 L 46.2812 54.998501 L 46.2812 52.849201 C 46.2812 51.748199 46.762001 50.699001 47.6035 49.963299 Z"/>
    <path id="path8" fill="#2698dd" stroke="none" d="M 25.4396 40.085899 L 32.726002 46.468201 C 32.726002 46.468201 30.6854 47.470798 28.167299 49.491501 C 27.6478 49.908298 26.862101 49.739399 26.5835 49.142899 L 23.1602 41.813301 L 24.243099 40.232399 C 24.5126 39.8386 25.0783 39.769501 25.4396 40.085899 Z"/>
    <path id="path9" fill="#2698dd" stroke="none" d="M 40.013 40.085899 L 32.726601 46.468201 C 32.726601 46.468201 34.7672 47.470798 37.285301 49.491501 C 37.804798 49.908298 38.5905 49.739399 38.869099 49.142899 L 42.2924 41.813301 L 41.209499 40.232399 C 40.939899 39.8386 40.374199 39.769501 40.013 40.085899 Z"/>
    <path id="path10" fill="#404040" stroke="none" d="M 37.558601 13.397999 L 38.305901 18.537903 C 41.7173 19.2019 42.2089 24.412399 42.279701 25.900497 C 42.2925 26.170601 42.3811 26.4314 42.5317 26.6586 L 43.833302 28.623699 C 43.833302 28.623699 43.387798 25.374901 45.427601 23.192902 C 45.427601 23.192902 46.128101 10.294601 37.558601 13.397999 Z"/>
    <path id="path11" fill="#242424" stroke="none" d="M 23.127701 12.006599 L 24.306801 12.790501 C 18.9758 16.621201 19.9722 23.191498 19.9722 23.191498 C 21.5665 24.743202 21.5665 28.622398 21.5665 28.622398 L 23.160801 27.070702 C 23.160801 27.070702 22.5455 22.588402 25.5522 20.864098 C 28.3423 19.263901 30.7836 20.0882 33.274799 20.0882 C 39.951 20.0882 41.819302 17.6395 41.495499 14.657402 C 41.3279 13.114399 38.903801 9.900162 32.726799 10.002399 C 30.2339 10.043602 25.552401 10.778198 23.127701 12.006599 Z"/>
</svg>
