<?xml version="1.0" encoding="UTF-8"?>
<!-- Generated by Pixelmator Pro 3.5.7 -->
<svg width="127" height="126" viewBox="0 0 127 126" xmlns="http://www.w3.org/2000/svg">
    <linearGradient id="linearGradient1" x1="63.5668" y1="-0" x2="63.5668" y2="125.665" gradientUnits="userSpaceOnUse">
        <stop offset="1e-05" stop-color="#afc1dc" stop-opacity="1"/>
        <stop offset="1" stop-color="#e2e5ed" stop-opacity="1"/>
    </linearGradient>
    <path id="Path" fill="url(#linearGradient1)" stroke="none" d="M 126.3993 62.8325 C 126.3993 97.533928 98.268234 125.665001 63.566799 125.665001 C 28.865368 125.665001 0.7343 97.533928 0.7343 62.8325 C 0.7343 28.131073 28.865368 0 63.566799 0 C 98.268234 0 126.3993 28.131073 126.3993 62.8325 Z"/>
    <path id="path1" fill="#f7dece" stroke="none" d="M 78.727203 46.325806 C 67.415398 46.325806 42.947899 43.384796 42.947899 43.384796 C 42.947899 43.384796 38.055599 48.766403 35.2276 51.594299 C 29.959101 56.862801 30.417299 63.531101 29.7188 71.848099 C 30.586901 94.963799 45.385601 113.382004 63.572201 113.382004 C 81.654198 113.382004 96.393501 95.170303 97.408699 72.232697 C 96.4132 61.9673 89.501701 46.325806 78.727203 46.325806 Z"/>
    <path id="path2" fill="#c1694f" stroke="none" d="M 63.5737 102.069 C 56.936401 102.069 53.463699 98.788696 53.090401 98.412598 C 52.5564 97.886101 52.253399 97.168999 52.2481 96.419098 C 52.242802 95.669197 52.535599 94.947899 53.062099 94.413803 C 53.588699 93.879799 54.305698 93.576797 55.055698 93.571503 C 55.805599 93.5662 56.526901 93.8591 57.060902 94.385597 C 57.205101 94.518501 59.340199 96.4132 63.5737 96.4132 C 67.869301 96.4132 70.001602 94.461899 70.092102 94.379898 C 70.635201 93.871101 71.355698 93.594902 72.099701 93.610199 C 72.843697 93.625603 73.5522 93.931198 74.073898 94.461899 C 74.591301 94.990303 74.879601 95.701202 74.876404 96.440697 C 74.873299 97.180199 74.578796 97.888702 74.0569 98.412598 C 73.683601 98.788696 70.210899 102.069 63.5737 102.069 Z M 66.401604 87.929298 L 60.745701 87.929298 C 59.995701 87.929298 59.276402 87.631401 58.745998 87.101097 C 58.215698 86.570702 57.917702 85.851402 57.917702 85.101402 C 57.917702 84.351402 58.215698 83.632103 58.745998 83.1017 C 59.276402 82.571404 59.995701 82.273399 60.745701 82.273399 L 66.401604 82.273399 C 67.151604 82.273399 67.870903 82.571404 68.401299 83.1017 C 68.931602 83.632103 69.229599 84.351402 69.229599 85.101402 C 69.229599 85.851402 68.931602 86.570702 68.401299 87.101097 C 67.870903 87.631401 67.151604 87.929298 66.401604 87.929298 Z"/>
    <path id="path3" fill="#662113" stroke="none" d="M 49.433399 76.616501 C 48.683399 76.616501 47.9641 76.318604 47.4338 75.7882 C 46.9034 75.257896 46.605499 74.538597 46.605499 73.788597 L 46.605499 68.132599 C 46.605499 67.382599 46.9034 66.6633 47.4338 66.133003 C 47.9641 65.6026 48.683399 65.304703 49.433399 65.304703 C 50.183399 65.304703 50.902699 65.6026 51.433102 66.133003 C 51.963402 66.6633 52.261398 67.382599 52.261398 68.132599 L 52.261398 73.788597 C 52.261398 74.538597 51.963402 75.257896 51.433102 75.7882 C 50.902699 76.318604 50.183399 76.616501 49.433399 76.616501 Z M 77.712997 76.616501 C 76.962997 76.616501 76.243698 76.318604 75.713303 75.7882 C 75.182999 75.257896 74.885002 74.538597 74.885002 73.788597 L 74.885002 68.132599 C 74.885002 67.382599 75.182999 66.6633 75.713303 66.133003 C 76.243698 65.6026 76.962997 65.304703 77.712997 65.304703 C 78.462997 65.304703 79.182297 65.6026 79.712601 66.133003 C 80.242996 66.6633 80.540901 67.382599 80.540901 68.132599 L 80.540901 73.788597 C 80.540901 74.538597 80.242996 75.257896 79.712601 75.7882 C 79.182297 76.318604 78.462997 76.616501 77.712997 76.616501 Z"/>
    <path id="path4" fill="#00a1fe" stroke="none" d="M 63.5667 23.121101 C 86.769997 23.121101 101.265999 40.241501 101.265999 54.508598 C 101.265999 68.772797 98.364601 74.485199 95.466003 68.772797 C 92.564499 63.068802 89.665901 54.533997 89.665901 54.533997 C 89.665901 54.533997 79.8302 60.905396 72.1241 51.652298 C 72.1241 51.652298 75.1698 68.772797 57.766499 51.652298 C 57.766499 51.652298 60.667999 63.068802 43.267601 48.801804 C 43.267601 48.801804 34.566002 54.508598 31.667299 68.772797 C 30.864201 72.734703 25.867201 68.772797 25.867201 54.508598 C 25.864401 40.241501 37.4646 23.121101 63.5667 23.121101 Z"/>
    <path id="path5" fill="#ff9494" stroke="none" d="M 80.800728 87.747002 C 80.800728 88.341881 80.318481 88.824127 79.723602 88.824127 C 79.128716 88.824127 78.646469 88.341881 78.646469 87.747002 C 78.646469 87.152115 79.128716 86.669868 79.723602 86.669868 C 80.318481 86.669868 80.800728 87.152115 80.800728 87.747002 Z"/>
    <path id="path6" fill="#ff9494" stroke="none" d="M 81.877861 90.440903 C 81.877861 90.738342 81.636742 90.979462 81.339302 90.979462 C 81.041862 90.979462 80.800735 90.738342 80.800735 90.440903 C 80.800735 90.143456 81.041862 89.902336 81.339302 89.902336 C 81.636742 89.902336 81.877861 90.143456 81.877861 90.440903 Z"/>
    <path id="path7" fill="#ff9494" stroke="none" d="M 80.799789 93.672302 C 80.799789 94.564621 80.076424 95.287987 79.184097 95.287987 C 78.291779 95.287987 77.568413 94.564621 77.568413 93.672302 C 77.568413 92.779976 78.291779 92.05661 79.184097 92.05661 C 80.076424 92.05661 80.799789 92.779976 80.799789 93.672302 Z"/>
    <path id="path8" fill="#ff9494" stroke="none" d="M 85.109329 94.2099 C 85.109329 94.804779 84.627083 95.287033 84.032204 95.287033 C 83.437317 95.287033 82.95507 94.804779 82.95507 94.2099 C 82.95507 93.615021 83.437317 93.132767 84.032204 93.132767 C 84.627083 93.132767 85.109329 93.615021 85.109329 94.2099 Z"/>
    <path id="path9" fill="#ff9494" stroke="none" d="M 88.338791 90.439903 C 88.338791 91.332222 87.615417 92.055588 86.723099 92.055588 C 85.83078 92.055588 85.107407 91.332222 85.107407 90.439903 C 85.107407 89.547577 85.83078 88.824211 86.723099 88.824211 C 87.615417 88.824211 88.338791 89.547577 88.338791 90.439903 Z"/>
</svg>
