<?xml version="1.0" encoding="UTF-8"?>
<!-- Generated by Pixelmator Pro 3.5.7 -->
<svg width="126" height="126" viewBox="0 0 126 126" xmlns="http://www.w3.org/2000/svg">
    <linearGradient id="linearGradient1" x1="62.8325" y1="-0" x2="62.8325" y2="125.665" gradientUnits="userSpaceOnUse">
        <stop offset="1e-05" stop-color="#afc1dc" stop-opacity="1"/>
        <stop offset="1" stop-color="#e2e5ed" stop-opacity="1"/>
    </linearGradient>
    <path id="Path" fill="url(#linearGradient1)" stroke="none" d="M 125.665001 62.8325 C 125.665001 97.533928 97.533928 125.665001 62.8325 125.665001 C 28.131069 125.665001 -0 97.533928 -0 62.8325 C -0 28.131073 28.131069 0 62.8325 0 C 97.533928 0 125.665001 28.131073 125.665001 62.8325 Z"/>
    <path id="path1" fill="#f7dece" stroke="none" d="M 47.2477 48.232697 L 47.786499 48.186501 C 47.990501 48.163399 48.175201 48.090302 48.329201 47.982498 L 48.325298 47.986404 C 48.841099 49.764603 49.472301 51.635101 50.261299 53.5942 C 51.273602 56.157501 52.270401 58.262802 53.3866 60.294998 L 53.232601 59.987099 C 53.140202 61.3881 53.028599 62.827499 52.882401 64.220802 C 52.813099 65.079102 52.6437 65.879601 52.385899 66.634003 L 52.405102 66.564697 C 52.358898 66.584 52.293499 74.570297 52.293499 74.570297 C 52.297298 79.777802 55.903702 84.138496 60.753201 85.297096 L 60.8302 85.312401 C 61.049599 84.754402 61.5807 84.365601 62.2043 84.365601 L 64.413498 84.365601 C 65.033203 84.373299 65.564301 84.758202 65.783699 85.300903 L 65.787498 85.312401 C 70.725601 84.150101 74.347298 79.789398 74.3666 74.578003 C 74.3666 74.578003 74.231903 66.622498 74.162598 66.568604 C 73.950897 65.894997 73.781601 65.102203 73.693001 64.286201 L 73.689201 64.2285 C 73.554497 62.827499 73.466003 61.422699 73.338997 59.994797 C 74.289597 58.278198 75.286499 56.176697 76.164001 54.009796 L 76.310303 53.601799 C 77.099297 51.642799 77.711197 49.7761 78.246201 47.994095 C 78.396301 48.101898 78.5811 48.175003 78.781197 48.198105 L 78.785103 48.198105 L 79.327698 48.244301 C 79.982002 48.313499 80.559402 47.774704 80.613297 46.939499 L 81.198303 39.507401 C 81.198303 39.503502 81.198303 39.499695 81.198303 39.499695 C 81.198303 38.872299 80.728699 38.356598 80.124496 38.279602 L 80.116798 38.279602 L 80.0513 38.279602 C 80.201401 37.198105 80.286102 35.951096 80.286102 34.684799 C 80.286102 31.921303 79.878098 29.250198 79.119904 26.7369 L 79.169899 26.933197 C 76.949203 22.0606 72.546097 18.523499 67.242401 17.534401 L 67.142303 17.518997 C 66.003098 17.284203 64.675201 17.126404 63.3204 17.087898 L 63.285801 17.087898 L 63.239601 17.087898 C 61.857899 17.114799 60.529999 17.268799 59.244499 17.542099 L 59.383099 17.518997 C 53.987 18.535103 49.591599 22.072098 47.3978 26.8293 L 47.3554 26.933197 C 46.6395 29.2425 46.227699 31.898201 46.227699 34.646301 C 46.227699 35.928001 46.3162 37.190399 46.489399 38.421997 L 46.473999 38.279602 C 45.862099 38.3489 45.388699 38.860802 45.388699 39.484299 L 45.388699 39.5112 L 45.973701 46.943298 C 46.027599 47.797798 46.612598 48.313499 47.243801 48.244301 L 47.2477 48.232697 Z"/>
    <path id="path2" fill="#00a1fe" stroke="none" d="M 104.546997 97.421898 C 104.278 85.721397 103.108002 83.073402 102.475998 81.2798 C 102.225998 80.560097 102.022003 75.695198 93.985901 72.539101 C 89.059402 70.599297 82.701103 70.560799 77.320396 68.286102 L 77.320396 74.613602 C 77.308899 81.418404 72.436203 87.080002 65.989403 88.315498 L 65.900902 88.330902 C 65.781601 89.031403 65.181198 89.554802 64.461502 89.5625 L 64.392197 89.5625 L 64.392197 94.335098 C 64.392197 98.999901 68.1717 102.778999 72.836502 102.778999 C 77.501297 102.778999 81.280899 98.999901 81.280899 94.335098 L 81.280899 91.001999 C 78.940804 90.651703 77.166496 88.657997 77.166496 86.248703 C 77.166496 83.596802 79.318001 81.445297 81.969803 81.445297 C 84.621696 81.445297 86.773201 83.596802 86.773201 86.248703 C 86.773201 88.350098 85.422203 90.136002 83.543999 90.790298 L 83.509399 90.801903 L 83.509399 94.335098 L 83.509399 94.515999 C 83.509399 100.412003 78.729103 105.193001 72.832703 105.193001 C 66.936302 105.193001 62.155998 100.412003 62.155998 94.515999 C 62.155998 94.4505 62.155998 94.389 62.155998 94.323502 L 62.155998 94.3312 L 62.155998 89.516296 C 61.470901 89.4701 60.916698 88.954399 60.808899 88.292397 L 60.808899 88.284698 C 54.304401 87.018402 49.4548 81.375999 49.4394 74.598198 L 49.4394 68.220703 C 44.035702 70.541603 37.638901 70.5877 32.685398 72.531403 C 24.6259 75.683601 24.4412 80.537003 24.194901 81.268303 C 23.5791 83.069504 22.3936 85.706001 22.124201 97.4142 C 22.077999 98.953697 22.124201 101.313004 26.7659 103.375999 C 36.873001 107.339996 49.8936 108.571999 62.7295 109.457001 L 63.961102 109.457001 C 76.823898 108.580002 89.825302 107.351997 99.924698 103.375999 C 104.546997 101.324997 104.588997 98.976799 104.546997 97.421898 Z M 48.042301 92.6493 L 43.246601 92.6493 L 43.246601 97.464203 L 39.821201 97.464203 L 39.821201 92.664703 L 35.025501 92.664703 L 35.025501 89.239197 L 39.821201 89.239197 L 39.821201 84.443604 L 43.246601 84.443604 L 43.246601 89.239197 L 48.042301 89.239197 L 48.042301 92.6493 Z"/>
    <path id="path3" fill="#000000" stroke="none" d="M 84.567299 86.207397 C 84.567299 84.775597 83.408798 83.613297 81.976997 83.613297 C 80.545197 83.613297 79.386703 84.771797 79.386703 86.203598 C 79.386703 87.6353 80.545197 88.7938 81.976997 88.7938 C 83.4049 88.7938 84.5634 87.6353 84.567299 86.207397 Z"/>
</svg>
