<?xml version="1.0" encoding="UTF-8"?>
<!-- Generated by Pixelmator Pro 3.5.7 -->
<svg width="127" height="126" viewBox="0 0 127 126" xmlns="http://www.w3.org/2000/svg">
    <linearGradient id="linearGradient1" x1="63.3012" y1="-0" x2="63.3012" y2="125.665" gradientUnits="userSpaceOnUse">
        <stop offset="1e-05" stop-color="#afc1dc" stop-opacity="1"/>
        <stop offset="1" stop-color="#e2e5ed" stop-opacity="1"/>
    </linearGradient>
    <path id="Path" fill="url(#linearGradient1)" stroke="none" d="M 126.133698 62.8325 C 126.133698 97.533928 98.002632 125.665001 63.301201 125.665001 C 28.599768 125.665001 0.4687 97.533928 0.4687 62.8325 C 0.4687 28.131073 28.599768 0 63.301201 0 C 98.002632 0 126.133698 28.131073 126.133698 62.8325 Z"/>
    <path id="path1" fill="#00a1fe" stroke="none" d="M 92.959702 54.791397 C 92.959702 69.504822 81.03212 81.432404 66.318703 81.432404 C 51.605282 81.432404 39.6777 69.504822 39.6777 54.791397 C 39.6777 40.077988 51.605282 28.150398 66.318703 28.150398 C 81.03212 28.150398 92.959702 40.077988 92.959702 54.791397 Z"/>
    <path id="path2" fill="#bccbe1" stroke="none" d="M 72.879997 57.5103 C 71.5149 57.5103 70.427498 57.247299 69.553596 56.841904 C 68.246002 56.236404 67.399101 55.303398 66.865997 54.371902 C 66.600403 53.908699 66.416397 53.448196 66.300903 53.042801 C 66.185402 52.638702 66.139801 52.283005 66.141098 52.070801 C 66.141098 51.665405 65.813599 51.337898 65.4095 51.337898 C 65.005402 51.337898 64.677696 51.665405 64.677696 52.070801 C 64.677696 52.334 64.710098 52.624001 64.774498 52.943405 C 64.8871 53.503204 65.096497 54.147499 65.441704 54.814606 C 65.955704 55.809502 66.774696 56.855103 67.999001 57.647301 C 68.306396 57.849899 68.635101 58.031097 68.992302 58.192299 C 69.048599 58.435196 69.1278 58.860802 69.126701 59.377602 C 69.126701 59.751999 69.084999 60.168304 68.972298 60.596603 C 68.859299 61.024796 68.675598 61.459702 68.380203 61.885201 C 68.153297 62.219398 68.234001 62.6731 68.566704 62.902699 C 68.8983 63.132301 69.3535 63.050598 69.583 62.717602 C 69.982903 62.141499 70.236702 61.541595 70.387199 60.9711 C 70.536201 60.399101 70.588402 59.854202 70.588402 59.377602 C 70.588402 59.139999 70.574997 58.915802 70.556297 58.7146 C 71.259598 58.8769 72.030296 58.973602 72.879898 58.973602 C 73.283897 58.973602 73.611603 58.646194 73.611603 58.241898 C 73.611801 57.837997 73.284302 57.5103 72.879997 57.5103 Z"/>
    <path id="path3" fill="#bccbe1" stroke="none" d="M 76.123001 48.0979 C 75.771301 47.901901 75.326897 48.022705 75.126999 48.375801 C 74.928299 48.726196 75.0532 49.171906 75.4049 49.371796 C 75.944397 49.680603 76.272102 50.0215 76.492302 50.374695 C 75.590103 50.691299 74.792702 50.822998 74.085297 50.822998 C 73.052902 50.821701 72.208702 50.549103 71.4944 50.130402 C 70.784103 49.712898 70.210999 49.139702 69.774696 48.547699 C 69.056702 47.567703 68.123703 46.696503 67.022903 46.060196 C 65.922203 45.426697 64.650803 45.029297 63.284401 45.029297 C 62.088299 45.029297 60.827801 45.338104 59.576698 46.024002 C 59.066601 46.303398 58.622299 46.630699 58.237 46.989304 C 56.716 47.574501 55.4072 47.786697 54.2971 47.786697 C 52.717201 47.783905 51.538399 47.362396 50.749199 46.946198 C 50.3559 46.736801 50.061798 46.530106 49.871399 46.379799 C 49.7761 46.303398 49.704899 46.244301 49.6618 46.203995 L 49.6189 46.162399 L 49.610802 46.154404 C 49.3302 45.867203 48.869701 45.859001 48.5784 46.1381 C 48.288502 46.418594 48.280399 46.880402 48.559601 47.171799 C 48.602501 47.213501 49.103401 47.726105 50.0658 48.237801 C 50.487099 48.460495 51.002701 48.679398 51.598801 48.857895 C 51.440498 49.080704 51.224098 49.408203 50.988098 49.821602 C 50.535801 50.620399 50.016102 51.742599 49.753101 53.062401 C 49.671101 53.460899 49.929001 53.844894 50.324902 53.923996 C 50.721001 54.0047 51.104801 53.745499 51.183998 53.349396 C 51.405602 52.236694 51.8619 51.246002 52.260601 50.5439 C 52.460701 50.1894 52.644402 49.911697 52.777401 49.7211 C 52.844501 49.628403 52.8969 49.554596 52.933102 49.508896 C 52.9506 49.486 52.9641 49.4701 52.972 49.459305 L 52.9827 49.448502 L 52.984001 49.4459 C 53.049999 49.363998 53.0942 49.271301 53.119701 49.172104 C 53.491402 49.220398 53.882099 49.247299 54.297001 49.247299 C 55.0648 49.247299 55.907902 49.156097 56.8153 48.9506 C 56.3629 49.918503 56.179001 50.930695 56.177502 51.856995 C 56.180302 52.788498 56.357498 53.637001 56.675701 54.311005 C 56.848701 54.674698 57.285099 54.831902 57.648899 54.6586 C 58.0126 54.485298 58.1698 54.050499 57.996498 53.685303 C 57.7938 53.263596 57.637901 52.5951 57.640701 51.856796 C 57.6394 51.059402 57.8139 50.184204 58.226101 49.382706 C 58.6408 48.582802 59.282501 47.853806 60.2799 47.306099 C 61.3311 46.728699 62.337898 46.4925 63.284199 46.4897 C 64.364899 46.4925 65.382301 46.803696 66.292397 47.3274 C 67.199997 47.849701 67.991997 48.587997 68.596001 49.410797 C 69.127502 50.137001 69.838997 50.851196 70.753304 51.3909 C 71.666 51.930603 72.7882 52.286301 74.085098 52.2836 C 74.942902 52.2836 75.874397 52.130699 76.878601 51.789703 L 76.879898 51.840805 C 76.879898 52.199203 76.823601 52.525299 76.768402 52.756401 C 76.7416 52.869095 76.713402 52.9617 76.693298 53.019402 C 76.683899 53.048996 76.6772 53.070496 76.671799 53.0839 L 76.6679 53.094696 L 76.6679 53.096001 C 76.520302 53.470299 76.699997 53.893402 77.0746 54.043701 C 77.450401 54.192703 77.875999 54.010201 78.026299 53.637001 C 78.046402 53.584595 78.3377 52.852997 78.341797 51.841003 C 78.341797 51.261002 78.241096 50.579102 77.901497 49.906601 C 77.566101 49.230804 76.987396 48.585205 76.123001 48.0979 Z"/>
    <path id="path4" fill="#bccbe1" stroke="none" d="M 57.354 42.634499 C 57.8577 42.0411 58.573101 41.574005 59.387798 41.2612 C 60.202599 40.944305 61.110199 40.7873 61.961201 40.7873 C 62.7882 40.7873 63.560101 40.938904 64.123901 41.2034 C 64.493103 41.372498 64.926498 41.211601 65.094299 40.846298 C 65.263496 40.479797 65.103798 40.043594 64.738503 39.877304 C 63.922401 39.498703 62.961201 39.329605 61.961102 39.328094 C 60.932899 39.328094 59.861698 39.512001 58.8615 39.896103 C 57.865501 40.2799 56.939201 40.8666 56.241199 41.6922 C 55.9781 41.999496 56.016998 42.459999 56.324402 42.720299 C 56.633202 42.983398 57.096298 42.943298 57.354 42.634499 Z"/>
    <path id="path5" fill="#f7dece" stroke="none" d="M 68.652 23.195702 C 50.631802 22.0868 35.457401 33.423401 35.8009 51.893402 L 35.787601 53.564896 L 27.9587 67.390297 C 27.5371 68.1353 27.499399 69.038696 27.856701 69.817398 C 28.213699 70.596001 28.922501 71.155701 29.7628 71.322197 L 34.601002 72.656502 L 36.120499 87.315498 C 36.160801 88.728996 36.789101 90.060799 37.8549 90.988403 C 38.920799 91.917397 40.327702 92.3564 41.731899 92.199203 L 45.5952 92.506699 C 46.349499 92.423401 47.104099 92.663696 47.669102 93.171204 C 48.234299 93.676003 48.557899 94.399399 48.557899 95.157997 L 48.557899 106.678001 L 81.246597 106.678001 C 81.246597 106.678001 81.246597 101.092003 81.246597 98.863998 C 81.246597 96.634201 82.017097 91.538597 83.474899 89.205299 C 88.774696 80.732101 97.401001 76.224297 98.856201 58.848404 C 100.313004 41.469696 89.941299 24.507301 68.652 23.195702 Z M 90.400299 52.994202 C 89.667397 54.205101 88.482101 54.959396 87.188004 55.182297 C 86.790802 55.252197 86.522102 55.627998 86.589401 56.026703 C 86.6605 56.423904 87.037697 56.693901 87.435097 56.622696 C 87.731796 56.571602 88.024399 56.497894 88.313103 56.405197 C 88.624397 57.050797 88.780098 57.744797 88.780098 58.436096 C 88.780098 59.1744 88.604401 59.907394 88.267403 60.570404 C 87.931702 61.232399 87.435097 61.821701 86.7826 62.280701 C 85.962402 62.856499 85.029404 63.130299 84.103203 63.131802 C 84.029503 63.131802 83.956802 63.123798 83.884399 63.122398 C 83.868202 63.000099 83.853401 62.879398 83.832001 62.759899 L 83.832001 62.7584 C 83.672401 61.9114 83.340797 61.135605 82.888397 60.461601 L 82.833199 60.379799 L 82.758202 60.315399 C 82.205101 59.840103 81.470703 59.061501 80.904198 58.268204 C 80.618301 57.872299 80.375504 57.470795 80.211601 57.1138 C 80.046501 56.755402 79.969902 56.443802 79.972702 56.259903 C 79.972702 56.178001 79.984802 56.121498 80.0009 56.084 C 80.014297 56.047798 80.027702 56.026199 80.055901 55.996704 C 80.340599 55.713402 80.340599 55.248901 80.055901 54.9617 C 79.769997 54.678398 79.308296 54.678398 79.023697 54.9617 C 78.843697 55.138901 78.709396 55.3535 78.627602 55.580505 C 78.543098 55.803497 78.5121 56.0355 78.5121 56.259796 C 78.514702 56.7658 78.667801 57.246399 78.8825 57.721695 C 79.208801 58.4319 79.694603 59.136597 80.222198 59.780899 C 80.717697 60.384995 81.2425 60.928696 81.715202 61.344803 C 82.041397 61.842896 82.278801 62.4067 82.395699 63.028198 C 82.444 63.2901 82.469498 63.5504 82.4748 63.798801 L 82.4748 63.804199 C 82.4748 63.8363 82.476196 63.868698 82.476196 63.9034 C 82.476196 65.007004 82.082802 66.052696 81.407501 66.875603 C 80.731102 67.697098 79.779297 68.294403 78.650299 68.506599 C 78.356201 68.562897 78.063599 68.589798 77.776199 68.589798 C 76.225899 68.591103 74.792 67.811203 73.930298 66.573502 C 74.394798 66.102303 74.790901 65.550598 75.091499 64.923599 L 75.091499 64.924896 C 75.466003 64.150299 75.6633 63.3288 75.698196 62.5154 C 75.715698 62.112701 75.404297 61.771698 75.001602 61.754303 C 74.596199 61.735504 74.256401 62.0495 74.237602 62.452301 C 74.212196 63.072399 74.061897 63.693901 73.775902 64.2873 L 73.774597 64.290001 C 73.467201 64.924896 73.040298 65.456596 72.530098 65.876801 L 72.527496 65.878098 C 71.687202 66.564003 70.627899 66.942596 69.544701 66.942596 C 68.8629 66.942596 68.170097 66.793602 67.512299 66.475403 C 66.2948 65.890198 65.449097 64.847198 65.0746 63.653702 L 65.073303 63.653702 C 64.931 63.201302 64.857201 62.7248 64.857201 62.247002 C 64.857201 61.563705 65.006203 60.870895 65.324303 60.211899 C 65.500198 59.848099 65.345802 59.410599 64.982101 59.237305 C 64.619598 59.061501 64.183403 59.213104 64.0075 59.577103 C 63.594101 60.436096 63.394001 61.350403 63.394001 62.247101 C 63.394001 62.681999 63.445099 63.111599 63.533699 63.5317 C 62.9632 63.843201 62.320202 64.043098 61.624802 64.092697 L 61.623501 64.092697 C 61.509399 64.100899 61.3979 64.106102 61.285198 64.106102 C 60.187 64.106102 59.170898 63.724899 58.365398 63.079102 C 57.660702 62.5154 57.121201 61.756897 56.833801 60.873505 C 57.3466 60.367599 57.773499 59.772903 58.086201 59.113701 C 58.257999 58.748505 58.1022 58.313599 57.737301 58.141701 C 57.373501 57.968597 56.934502 58.124298 56.763901 58.4907 C 56.4753 59.102997 56.053699 59.646599 55.5396 60.0802 C 54.806702 60.699005 53.882999 61.096405 52.8549 61.170395 L 52.8536 61.170395 C 52.739498 61.178299 52.627998 61.183701 52.516701 61.183701 C 50.197102 61.183701 48.215698 59.469498 47.880001 57.176804 L 47.8787 57.170105 L 47.8787 57.1661 C 47.859901 57.056 47.847801 56.941895 47.839802 56.823799 C 47.831799 56.712296 47.827801 56.596901 47.827801 56.4841 C 47.827801 56.190102 47.855999 55.898895 47.908401 55.618195 C 47.9795 55.220795 47.717899 54.8396 47.320499 54.7658 C 46.9259 54.694702 46.5434 54.953796 46.468201 55.351105 C 46.402199 55.718796 46.366199 56.097397 46.366199 56.484001 L 46.3675 56.528198 C 45.709801 56.454399 45.071999 56.243599 44.501499 55.909401 C 43.779202 55.487999 43.165699 54.870499 42.7416 54.0783 C 42.364399 53.370804 42.185699 52.617798 42.185699 51.871399 C 42.185699 50.907501 42.485199 49.961304 43.0369 49.170502 C 43.250401 49.4711 43.490601 49.754395 43.760399 50.020096 C 44.377899 50.625504 45.092098 51.073799 45.8479 51.366402 C 46.224998 51.514297 46.646702 51.326096 46.7929 50.947701 C 46.940601 50.5718 46.751301 50.149002 46.376801 50.002602 C 45.798199 49.779701 45.255798 49.438904 44.7859 48.977097 L 44.7859 48.9758 C 44.369801 48.570404 44.0476 48.108505 43.818001 47.613205 C 43.5228 46.984901 43.375099 46.301804 43.375099 45.623901 C 43.376202 44.434502 43.819302 43.255905 44.713299 42.343102 C 45.474499 41.567101 46.432899 41.113297 47.427601 40.975204 L 47.428902 40.975204 L 47.431499 40.975204 C 47.6437 40.948303 47.855701 40.933601 48.067799 40.933601 C 49.254601 40.934898 50.434502 41.382004 51.349998 42.274704 C 51.638699 42.555298 52.100399 42.552505 52.383701 42.262695 C 52.665699 41.975403 52.6604 41.513596 52.373001 41.230301 C 51.207699 40.089203 49.699001 39.505295 48.188599 39.4785 C 48.359001 38.778999 48.686699 38.128204 49.145699 37.580399 C 49.783401 36.820702 50.654701 36.259399 51.6964 36.019196 C 52.0508 35.940102 52.3997 35.899796 52.747299 35.899796 C 53.359501 35.899796 53.955502 36.023102 54.506001 36.246101 C 54.3503 36.7911 54.264301 37.362999 54.264301 37.956406 C 54.264301 38.359001 54.590698 38.685196 54.994598 38.685196 C 55.398499 38.685196 55.724701 38.359001 55.724701 37.956406 C 55.724701 37.317299 55.855099 36.706604 56.083302 36.152199 C 56.436298 35.303802 57.033699 34.581604 57.7841 34.071503 C 58.537102 33.561295 59.437901 33.264801 60.4165 33.264801 C 61.826 33.264801 63.0839 33.880798 63.945599 34.864799 C 64.671799 35.690399 65.1082 36.7696 65.1082 37.956406 C 65.1082 38.359001 65.437202 38.685196 65.839798 38.685196 C 66.243896 38.685196 66.5728 38.359001 66.5728 37.956406 C 66.5728 36.605804 66.135201 35.353401 65.395401 34.339905 C 65.774101 33.816399 66.255997 33.370697 66.814301 33.040497 C 67.512299 32.629799 68.324501 32.392197 69.195801 32.392197 C 70.199799 32.392197 71.122002 32.705002 71.883202 33.239197 C 72.647102 33.773499 73.243103 34.530701 73.580101 35.409805 L 73.578796 35.409805 C 73.777603 35.932098 73.886299 36.493103 73.886299 37.085205 C 73.886299 37.487999 74.215103 37.815399 74.617897 37.815399 C 75.020699 37.815399 75.3508 37.487999 75.3508 37.085205 C 75.3508 36.481094 75.258102 35.899902 75.095703 35.348206 C 75.962997 34.542801 77.110703 34.086304 78.295998 34.086304 C 78.914902 34.086304 79.543198 34.208496 80.149803 34.467499 C 80.995499 34.834099 81.674896 35.412598 82.159401 36.118805 C 82.644096 36.826202 82.928497 37.6558 82.978302 38.514801 C 82.983704 38.603401 82.987801 38.690796 82.987801 38.779205 C 82.985001 39.399506 82.862801 40.025101 82.602501 40.633102 C 82.442902 41.003799 82.614502 41.433304 82.985001 41.591599 C 83.356796 41.751404 83.785004 41.580795 83.946098 41.210403 C 84.2173 40.579399 84.373001 39.928299 84.4254 39.274704 C 85.142097 39.3256 85.840103 39.543098 86.457802 39.908203 C 87.162498 40.324402 87.765198 40.933701 88.176102 41.714996 C 88.535797 42.3983 88.704903 43.124496 88.706398 43.844002 C 88.706398 44.172897 88.6661 44.4991 88.5951 44.818604 C 88.157402 44.646805 87.701103 44.531403 87.245903 44.464203 C 86.848503 44.409195 86.476601 44.6884 86.423103 45.088402 C 86.365303 45.488602 86.644501 45.857605 87.041901 45.912704 C 87.502296 45.978302 87.954697 46.110001 88.387001 46.313995 C 88.462196 46.438995 88.577599 46.542297 88.722504 46.605499 C 88.811096 46.644302 88.906403 46.6633 88.9991 46.6633 C 89.268898 46.843102 89.514503 47.045799 89.733498 47.267303 L 89.734802 47.2686 C 90.612701 48.153099 91.083801 49.346603 91.083801 50.566803 C 91.083702 51.395302 90.864799 52.233002 90.400299 52.994202 Z"/>
    <path id="path6" fill="#c0cde2" stroke="none" d="M 82.806099 46.530602 C 82.443604 46.217804 82.054398 45.961395 81.642097 45.781502 C 81.2286 45.5989 80.793701 45.490204 80.349403 45.490204 C 79.945396 45.490204 79.619102 45.817795 79.619102 46.221802 C 79.619102 46.6259 79.945396 46.952202 80.349403 46.952202 C 80.617897 46.952202 80.9562 47.044899 81.315903 47.251602 C 81.851501 47.558899 82.408699 48.112 82.811401 48.802002 C 83.219597 49.493301 83.479897 50.313499 83.477303 51.1633 C 83.474503 52.096298 83.180603 53.0709 82.383202 54.038696 C 82.128098 54.348701 82.171097 54.8106 82.482399 55.067001 C 82.793999 55.326096 83.255699 55.280396 83.512199 54.971695 C 84.5149 53.759399 84.9431 52.417099 84.941803 51.1633 C 84.941803 50.400803 84.786102 49.670502 84.531097 49.0047 C 84.144402 48.007202 83.529701 47.155998 82.806099 46.530602 Z"/>
    <path id="path7" fill="#bccbe1" stroke="none" d="M 77.750298 43.218102 C 75.7407 43.218102 74.128403 42.477203 73.011497 41.5093 C 72.453102 41.025902 72.0261 40.486404 71.745598 39.968201 C 71.460999 39.451401 71.3321 38.958694 71.334801 38.5895 C 71.334801 38.186905 71.007301 37.859406 70.6045 37.859406 C 70.200401 37.859406 69.872902 38.186905 69.872902 38.5895 C 69.875504 39.275604 70.090401 39.981598 70.460899 40.666397 C 70.851601 41.380501 71.420799 42.074402 72.141701 42.6838 C 71.996597 42.885201 71.7967 43.1483 71.538803 43.426201 C 70.983002 44.034302 70.180397 44.706802 69.220398 45.049194 C 68.8433 45.183304 68.643204 45.6008 68.778801 45.981995 C 68.914299 46.363297 69.330597 46.559296 69.713097 46.424896 C 71.014 45.957901 71.985802 45.105499 72.647598 44.379105 C 72.941704 44.0569 73.1698 43.760399 73.340401 43.524101 C 74.5485 44.220795 76.042603 44.681305 77.750099 44.681305 C 78.154198 44.681305 78.480301 44.353806 78.480301 43.951004 C 78.4804 43.547104 78.154198 43.218102 77.750298 43.218102 Z"/>
</svg>
