<?xml version="1.0" encoding="UTF-8"?>
<!-- Generated by Pixelmator Pro 3.5.7 -->
<svg width="127" height="126" viewBox="0 0 127 126" xmlns="http://www.w3.org/2000/svg">
    <linearGradient id="linearGradient1" x1="63.434" y1="-0" x2="63.434" y2="125.665" gradientUnits="userSpaceOnUse">
        <stop offset="1e-05" stop-color="#afc1dc" stop-opacity="1"/>
        <stop offset="1" stop-color="#e2e5ed" stop-opacity="1"/>
    </linearGradient>
    <path id="Path" fill="url(#linearGradient1)" stroke="none" d="M 126.266502 62.8325 C 126.266502 97.533928 98.135429 125.665001 63.433998 125.665001 C 28.732569 125.665001 0.6015 97.533928 0.6015 62.8325 C 0.6015 28.131073 28.732569 0 63.433998 0 C 98.135429 0 126.266502 28.131073 126.266502 62.8325 Z"/>
    <path id="path1" fill="#edc391" stroke="none" d="M 91.645897 69.910202 L 36.535198 69.910202 C 30.596201 69.910202 25.7344 74.587601 25.7344 80.312599 C 25.7344 86.030197 30.596201 90.714996 36.535198 90.714996 L 91.645897 90.714996 C 97.584801 90.714996 102.446999 86.037598 102.446999 80.312599 C 102.454002 74.587601 97.592201 69.910202 91.645897 69.910202 Z"/>
    <path id="path2" fill="#f7dece" stroke="none" d="M 93.425201 43.463104 C 86.335403 32.677101 77.194504 28.988297 63.914799 28.988297 C 50.635101 28.988297 41.494301 32.669701 34.4044 43.463104 C 29.2106 51.371902 27.9564 63.8032 29.557301 76.610703 C 31.0993 88.923897 32.375599 95.681801 40.018799 102.580002 C 46.6586 108.57 55.674 109.862 63.4058 109.862 L 64.423897 109.862 C 72.155602 109.862 81.178398 108.57 87.810898 102.580002 C 95.454102 95.681801 96.7304 88.923897 98.272301 76.610703 C 99.873299 63.8032 98.619102 51.364502 93.425201 43.463104 Z"/>
    <path id="path3" fill="#312d2d" stroke="none" d="M 74.9048 44.641602 C 75.008102 44.530899 75.111397 44.427597 75.214699 44.316895 C 75.288399 44.235802 75.362198 44.147301 75.435997 44.066101 C 75.605698 43.866898 75.767998 43.667702 75.922897 43.461105 L 75.989304 43.372604 C 76.136902 43.173401 76.269699 42.966797 76.402496 42.752899 C 76.439301 42.693901 76.476196 42.627502 76.5131 42.568405 C 76.638496 42.3545 76.764 42.140503 76.882004 41.911804 C 76.904099 41.875 76.9189 41.845398 76.933601 41.808601 C 77.213997 41.255203 77.457397 40.6576 77.656601 40.030602 L 77.678802 39.964203 C 78.084602 38.658295 78.320602 37.204895 78.320602 35.567101 C 78.320602 32.291504 77.140198 29.701904 75.340103 27.746796 C 75.317902 27.724701 75.3032 27.709999 75.288399 27.687798 C 75.1483 27.540298 75.000702 27.3927 74.853203 27.245201 L 74.764603 27.156601 C 74.592903 26.993301 74.415703 26.835899 74.233398 26.684502 C 74.085899 26.559097 73.938301 26.441002 73.790802 26.322998 C 73.753899 26.293503 73.717003 26.271301 73.6875 26.241798 L 73.2006 25.887695 C 73.171097 25.872902 73.148903 25.8508 73.1194 25.836098 C 72.529198 25.437698 71.916901 25.083496 71.282402 24.781097 C 71.2603 24.766296 71.230797 24.758896 71.208603 24.744202 C 71.0242 24.655602 70.839699 24.574501 70.655296 24.493301 L 70.485603 24.419601 C 70.323303 24.353203 70.161003 24.286804 69.998703 24.227699 C 69.939697 24.205597 69.873299 24.183502 69.814301 24.161301 C 69.659302 24.102303 69.504402 24.050697 69.356796 23.999001 L 69.1576 23.932602 C 69.002701 23.880997 68.855202 23.8367 68.700203 23.792496 C 68.633797 23.770302 68.567398 23.7556 68.493698 23.733398 C 68.338699 23.689201 68.1838 23.652298 68.0289 23.615402 L 67.837097 23.571098 C 67.667397 23.534203 67.497704 23.497398 67.335403 23.460503 C 67.283699 23.453102 67.232101 23.438301 67.180496 23.431 C 66.745201 23.334999 66.309898 23.2686 65.874603 23.216995 C 65.815598 23.209602 65.756599 23.209602 65.697601 23.202202 C 65.542603 23.1875 65.395103 23.172699 65.240097 23.165398 C 65.151604 23.158005 65.070503 23.158005 64.981903 23.150604 C 64.856499 23.143204 64.738503 23.135803 64.620399 23.135803 C 64.524498 23.135803 64.428596 23.128502 64.325302 23.128502 C 64.258904 23.128502 64.192497 23.121101 64.133499 23.121101 L 64.0597 23.121101 C 63.7425 23.121101 63.425301 23.135803 63.115398 23.158005 C 63.0564 23.165398 62.997398 23.165398 62.938301 23.172699 C 62.621101 23.202202 62.311199 23.231796 62.016102 23.283401 C 58.3937 23.873596 55.464802 25.777 53.635201 27.6362 C 52.5359 28.750198 51.834999 29.849503 51.621101 30.638901 L 51.628502 30.638901 C 53.974499 30.041298 57.006699 29.517502 60.3857 29.340401 C 64.959801 29.023201 68.781403 31.627502 68.597 35.626099 C 68.574799 36.105698 68.5158 36.555695 68.434601 36.976196 L 68.412498 37.101601 C 68.375603 37.264 68.331398 37.4263 68.287102 37.5812 C 68.264999 37.654999 68.242798 37.728699 68.228104 37.795105 C 68.1838 37.927902 68.139503 38.060699 68.087898 38.193497 C 68.058403 38.274704 68.0215 38.355804 67.984596 38.436996 C 67.932999 38.555 67.881302 38.665695 67.829697 38.768997 C 67.7854 38.857498 67.741203 38.938705 67.689499 39.019798 C 67.637901 39.1157 67.578796 39.211601 67.519798 39.300201 C 67.4608 39.388702 67.394402 39.477203 67.335403 39.565796 C 67.283699 39.639496 67.232101 39.713303 67.173103 39.787102 C 67.077202 39.905106 66.9739 40.0158 66.870598 40.119095 C 66.841103 40.148605 66.8116 40.185501 66.782097 40.214996 C 66.641899 40.355202 66.494301 40.480598 66.339401 40.606003 C 66.309898 40.628098 66.273003 40.650299 66.2435 40.672401 C 66.117897 40.770004 65.987396 40.861099 65.852501 40.945404 C 65.808197 40.967499 65.771301 40.997002 65.727097 41.019196 C 65.594299 41.100296 65.461502 41.174103 65.328697 41.240501 C 65.284401 41.262604 65.247498 41.284698 65.2033 41.2995 C 65.063103 41.365898 64.915497 41.432297 64.760597 41.491302 C 64.731102 41.506104 64.694199 41.520798 64.657303 41.528198 C 64.487602 41.594604 64.317902 41.653595 64.1409 41.705299 C 64.126099 41.712601 64.111397 41.712601 64.096603 41.720001 C 63.299801 41.9561 62.444 42.059402 61.573502 42.059402 C 58.947102 42.059402 56.224701 41.085602 54.660702 39.6912 C 54.531399 39.573601 54.3633 39.507904 54.188499 39.506699 C 54.1516 39.506699 54.1147 39.5215 54.085201 39.5289 C 54.055698 39.536301 54.018799 39.536301 53.9893 39.550995 C 53.945 39.565796 53.900799 39.580505 53.856499 39.602699 C 53.7827 39.639496 53.723701 39.6838 53.6647 39.735504 C 53.649899 39.750198 53.642601 39.764999 53.6278 39.779701 C 53.576199 39.838699 53.531898 39.912498 53.494999 39.986298 C 53.487598 40.000999 53.487598 40.0084 53.480202 40.023201 C 53.443401 40.119095 53.4212 40.229698 53.436001 40.347801 C 53.657299 42.575806 55.059101 45.364601 58.3937 47.459801 C 61.566101 49.459099 68.242798 49.4813 72.994003 46.227699 L 73.126801 46.139198 C 73.266998 46.035904 73.414497 45.932602 73.554703 45.829399 C 73.613701 45.785095 73.680099 45.733398 73.739098 45.681801 C 73.945702 45.519501 74.144897 45.3498 74.3367 45.172699 L 74.624496 44.907196 C 74.727699 44.826004 74.816299 44.730103 74.9048 44.641602 Z"/>
    <path id="path4" fill="#00a1fe" stroke="none" d="M 74.9048 44.641602 C 75.008102 44.530899 75.111397 44.427597 75.214699 44.316895 C 75.288399 44.235802 75.362198 44.147301 75.435997 44.066101 C 75.605698 43.866898 75.767998 43.667702 75.922897 43.461105 L 75.989304 43.372604 C 76.136902 43.173401 76.269699 42.966797 76.402496 42.752899 C 76.439301 42.693901 76.476196 42.627502 76.5131 42.568405 C 76.638496 42.3545 76.764 42.140503 76.882004 41.911804 C 76.904099 41.875 76.9189 41.845398 76.933601 41.808601 C 77.213997 41.255203 77.457397 40.6576 77.656601 40.030602 L 77.678802 39.964203 C 78.084503 38.658295 78.320602 37.204895 78.320602 35.567101 C 78.320602 32.291504 77.140198 29.701904 75.340103 27.746796 C 75.317902 27.724701 75.3032 27.709999 75.288399 27.687798 C 75.1483 27.540298 75.000702 27.3927 74.853203 27.245201 L 74.764603 27.156601 C 74.592903 26.993301 74.415703 26.835899 74.233398 26.684502 C 74.085899 26.559097 73.938301 26.441002 73.790802 26.322998 C 73.753899 26.293503 73.717003 26.271301 73.6875 26.241798 L 73.2006 25.887695 C 73.171097 25.872902 73.148903 25.8508 73.1194 25.836098 C 72.529198 25.437698 71.916901 25.083496 71.282402 24.781097 C 71.2603 24.766296 71.230797 24.758896 71.208603 24.744202 C 71.0242 24.655602 70.839699 24.574501 70.655296 24.493301 L 70.485603 24.419601 C 70.323303 24.353203 70.161003 24.286804 69.998703 24.227699 C 69.939697 24.205597 69.873299 24.183502 69.814301 24.161301 C 69.659302 24.102303 69.504402 24.050697 69.356796 23.999001 L 69.1576 23.932602 C 69.002701 23.880997 68.855202 23.8367 68.700203 23.792496 C 68.633797 23.770302 68.567398 23.7556 68.493698 23.733398 C 68.338699 23.689201 68.1838 23.652298 68.0289 23.615402 L 67.837097 23.571098 C 67.667397 23.534203 67.497704 23.497398 67.335403 23.460503 C 67.283699 23.453102 67.232101 23.438301 67.180496 23.431 C 66.745201 23.334999 66.309898 23.2686 65.874603 23.216995 C 65.815598 23.209602 65.756599 23.209602 65.697601 23.202202 C 65.542603 23.1875 65.395103 23.172699 65.240097 23.165398 C 65.151604 23.158005 65.070503 23.158005 64.981903 23.150604 C 64.856499 23.143204 64.738503 23.135803 64.620399 23.135803 C 64.524498 23.135803 64.428596 23.128502 64.325302 23.128502 C 64.258904 23.128502 64.192497 23.121101 64.133499 23.121101 L 64.0597 23.121101 C 63.7425 23.121101 63.425301 23.135803 63.115398 23.158005 C 63.0564 23.165398 62.997398 23.165398 62.938301 23.172699 C 62.621101 23.202202 62.311199 23.231796 62.016102 23.283401 C 58.3937 23.873596 55.464802 25.777 53.635201 27.6362 C 52.5359 28.750198 51.834999 29.849503 51.621101 30.638901 L 51.628502 30.638901 C 53.974499 30.041298 57.006699 29.517502 60.3857 29.340401 C 64.959801 29.023201 68.781403 31.627502 68.597 35.626099 C 68.574799 36.105698 68.5158 36.555695 68.434601 36.976196 L 68.412498 37.101601 C 68.375603 37.264 68.331398 37.4263 68.287102 37.5812 C 68.264999 37.654999 68.242798 37.728699 68.228104 37.795105 C 68.1838 37.927902 68.139503 38.060699 68.087898 38.193497 C 68.058403 38.274704 68.0215 38.355804 67.984596 38.436996 C 67.932999 38.555 67.881302 38.665695 67.829697 38.768997 C 67.7854 38.857498 67.741203 38.938705 67.689499 39.019798 C 67.637901 39.1157 67.578796 39.211601 67.519798 39.300201 C 67.4608 39.388702 67.394402 39.477203 67.335403 39.565796 C 67.283699 39.639496 67.232101 39.713303 67.173103 39.787102 C 67.077202 39.905106 66.9739 40.0158 66.870598 40.119095 C 66.841103 40.148605 66.8116 40.185501 66.782097 40.214996 C 66.641899 40.355202 66.494301 40.480598 66.339401 40.606003 C 66.309898 40.628098 66.273003 40.650299 66.2435 40.672401 C 66.117897 40.770004 65.987396 40.861099 65.852501 40.945404 C 65.808197 40.967499 65.771301 40.997002 65.727097 41.019196 C 65.594299 41.100296 65.461502 41.174103 65.328697 41.240501 C 65.284401 41.262604 65.247498 41.284698 65.2033 41.2995 C 65.063103 41.365898 64.915497 41.432297 64.760597 41.491302 C 64.731102 41.506104 64.694199 41.520798 64.657303 41.528198 C 64.487602 41.594604 64.317902 41.653595 64.1409 41.705299 C 64.126099 41.712601 64.111397 41.712601 64.096603 41.720001 C 63.299801 41.9561 62.444 42.059402 61.573502 42.059402 C 58.947102 42.059402 56.224701 41.085602 54.660702 39.6912 C 54.531399 39.573601 54.3633 39.507904 54.188499 39.506699 C 54.1516 39.506699 54.1147 39.5215 54.085201 39.5289 C 54.055698 39.536301 54.018799 39.536301 53.9893 39.550995 C 53.945 39.565796 53.900799 39.580505 53.856499 39.602699 C 53.7827 39.639496 53.723701 39.6838 53.6647 39.735504 C 53.649899 39.750198 53.642601 39.764999 53.6278 39.779701 C 53.576199 39.838699 53.531898 39.912498 53.494999 39.986298 C 53.487598 40.000999 53.487598 40.0084 53.480202 40.023201 C 53.443401 40.119095 53.4212 40.229698 53.436001 40.347801 C 53.657299 42.575806 55.059101 45.364601 58.3937 47.459801 C 61.566101 49.459099 68.242798 49.4813 72.994003 46.227699 L 73.126801 46.139198 C 73.266998 46.035904 73.414497 45.932602 73.554703 45.8293 C 73.613701 45.785095 73.680099 45.733398 73.739098 45.681801 C 73.945702 45.519501 74.144897 45.3498 74.3367 45.172699 L 74.624496 44.907196 C 74.727699 44.826004 74.816299 44.730103 74.9048 44.641602 Z"/>
    <path id="path5" fill="#dba689" stroke="none" d="M 67.936699 80.293999 C 67.837502 80.253304 67.733299 80.225998 67.6269 80.212898 L 60.765701 80.212898 C 60.662399 80.2276 60.559101 80.249802 60.455898 80.293999 C 59.836102 80.544899 59.489399 81.194099 59.7845 81.872902 C 60.079601 82.558998 61.444401 84.484497 64.196297 84.484497 C 66.948097 84.484497 68.313004 82.558998 68.608101 81.872902 C 68.895798 81.186699 68.556503 80.544899 67.936699 80.293999 Z"/>
    <path id="path6" fill="#312d2d" stroke="none" d="M 48.0522 80.973 C 50.692501 80.973 52.832901 78.756599 52.832901 76.022598 C 52.832901 73.288597 50.692501 71.072304 48.0522 71.072304 C 45.4119 71.072304 43.2715 73.288597 43.2715 76.022598 C 43.2715 78.756599 45.4119 80.973 48.0522 80.973 Z"/>
    <path id="path7" fill="#312d2d" stroke="none" d="M 80.306099 80.973 C 82.946404 80.973 85.0868 78.756599 85.0868 76.022598 C 85.0868 73.288597 82.946404 71.072304 80.306099 71.072304 C 77.665802 71.072304 75.525398 73.288597 75.525398 76.022598 C 75.525398 78.756599 77.665802 80.973 80.306099 80.973 Z"/>
    <path id="path8" fill="#444444" stroke="none" d="M 71.067703 90.575401 C 68.411797 92.154198 59.7062 92.154198 57.057701 90.575401 C 55.530499 89.6679 53.973801 91.054901 54.608299 92.441902 C 55.228001 93.806801 59.979198 96.964401 64.088501 96.964401 C 68.190498 96.964401 72.882599 93.806801 73.502296 92.441902 C 74.129402 91.054901 72.587502 89.6679 71.067703 90.575401 Z"/>
</svg>
