<?xml version="1.0" encoding="UTF-8"?>
<!-- Generated by Pixelmator Pro 3.5.7 -->
<svg width="217" height="46" viewBox="0 0 217 46" xmlns="http://www.w3.org/2000/svg">
    <path id="Path" fill="#00a1fe" stroke="none" d="M 22.999701 0 C 35.702599 0 45.999699 10.2971 45.999699 23 L 45.999699 39.099998 C 45.999699 40.93 45.2728 42.685001 43.978802 43.979 C 42.684799 45.272999 40.929699 46 39.099701 46 L 24.1497 46 L 24.1497 35.909901 C 24.1497 33.607601 24.290001 31.2225 25.497499 29.262899 C 26.362 27.858601 27.518499 26.656601 28.888399 25.738501 C 30.258301 24.8204 31.809601 24.207701 33.437099 23.9419 L 33.877602 23.8706 C 34.0592 23.8085 34.216801 23.6912 34.3284 23.535101 C 34.439999 23.379 34.5 23.1919 34.5 23 C 34.5 22.8081 34.439999 22.621 34.3284 22.464899 C 34.216801 22.3088 34.0592 22.1915 33.877602 22.1294 L 33.437099 22.0581 C 31.059099 21.669701 28.863199 20.5441 27.159401 18.8403 C 25.455601 17.136499 24.330099 14.940601 23.941601 12.562599 L 23.8703 12.1222 C 23.808201 11.940601 23.690901 11.782898 23.5348 11.671299 C 23.3787 11.5597 23.191601 11.499699 22.999701 11.499699 C 22.8078 11.499699 22.6208 11.5597 22.464701 11.671299 C 22.308599 11.782898 22.191299 11.940601 22.1292 12.1222 L 22.057899 12.562599 C 21.7922 14.190201 21.179501 15.741501 20.2614 17.111401 C 19.3433 18.4814 18.141199 19.6378 16.736799 20.502199 C 14.7772 21.7097 12.3921 21.85 10.0898 21.85 L 0.027344 21.85 C 0.628794 9.68185 10.6832 0 22.999701 0 Z"/>
    <path id="path1" fill="#00a1fe" stroke="none" d="M 0 24.15 L 10.0901 24.15 C 12.3924 24.15 14.7775 24.2903 16.737101 25.497801 C 18.2689 26.4417 19.5583 27.7311 20.502199 29.262899 C 21.7097 31.2225 21.85 33.607601 21.85 35.909901 L 21.85 46 L 6.9 46 C 5.07001 46 3.31496 45.272999 2.02096 43.979 C 0.726962 42.685001 0 40.93 0 39.099998 L 0 24.15 Z M 46 2.299999 C 46 2.91 45.757702 3.49501 45.326302 3.92635 C 44.895 4.357681 44.310001 4.599998 43.700001 4.599998 C 43.09 4.599998 42.505001 4.357681 42.0737 3.92635 C 41.6423 3.49501 41.400002 2.91 41.400002 2.299999 C 41.400002 1.689999 41.6423 1.104988 42.0737 0.673653 C 42.505001 0.242321 43.09 0 43.700001 0 C 44.310001 0 44.895 0.242321 45.326302 0.673653 C 45.757702 1.104988 46 1.689999 46 2.299999 Z"/>
    <text id="Perskripsi" xml:space="preserve" x="56" y="37" font-family="Outfit" font-size="33" font-weight="600" fill="#2f2e2e">Perskripsi</text>
</svg>
