<?xml version="1.0" encoding="UTF-8"?>
<!-- Generated by Pixelmator Pro 3.5.7 -->
<svg width="48" height="46" viewBox="0 0 48 46" xmlns="http://www.w3.org/2000/svg">
    <path id="Path" fill="#00a1fe" stroke="none" d="M 23.999701 0 C 36.702599 0 46.999699 10.2971 46.999699 23 L 46.999699 39.099998 C 46.999699 40.93 46.2728 42.685001 44.978802 43.979 C 43.684799 45.272999 41.929699 46 40.099701 46 L 25.1497 46 L 25.1497 35.909901 C 25.1497 33.607601 25.290001 31.2225 26.497499 29.262899 C 27.362 27.858601 28.518499 26.656601 29.888399 25.738501 C 31.258301 24.8204 32.809601 24.207701 34.437099 23.9419 L 34.877602 23.8706 C 35.0592 23.8085 35.216801 23.6912 35.3284 23.535101 C 35.439999 23.379 35.5 23.1919 35.5 23 C 35.5 22.8081 35.439999 22.621 35.3284 22.464899 C 35.216801 22.3088 35.0592 22.1915 34.877602 22.1294 L 34.437099 22.0581 C 32.059101 21.669701 29.863199 20.5441 28.159401 18.8403 C 26.455601 17.136499 25.330099 14.940601 24.941601 12.562599 L 24.8703 12.1222 C 24.808201 11.940601 24.690901 11.782898 24.5348 11.671299 C 24.3787 11.5597 24.191601 11.499699 23.999701 11.499699 C 23.8078 11.499699 23.6208 11.5597 23.464701 11.671299 C 23.308599 11.782898 23.191299 11.940601 23.1292 12.1222 L 23.057899 12.562599 C 22.7922 14.190201 22.179501 15.741501 21.2614 17.111401 C 20.3433 18.4814 19.141199 19.6378 17.736799 20.502199 C 15.7772 21.7097 13.3921 21.85 11.0898 21.85 L 1.027344 21.85 C 1.628794 9.68185 11.6832 0 23.999701 0 Z"/>
    <path id="path1" fill="#00a1fe" stroke="none" d="M 1 24.15 L 11.0901 24.15 C 13.3924 24.15 15.7775 24.2903 17.737101 25.497801 C 19.2689 26.4417 20.5583 27.7311 21.502199 29.262899 C 22.7097 31.2225 22.85 33.607601 22.85 35.909901 L 22.85 46 L 7.9 46 C 6.07001 46 4.31496 45.272999 3.02096 43.979 C 1.726962 42.685001 1 40.93 1 39.099998 L 1 24.15 Z M 47 2.299999 C 47 2.91 46.757702 3.49501 46.326302 3.92635 C 45.895 4.357681 45.310001 4.599998 44.700001 4.599998 C 44.09 4.599998 43.505001 4.357681 43.0737 3.92635 C 42.6423 3.49501 42.400002 2.91 42.400002 2.299999 C 42.400002 1.689999 42.6423 1.104988 43.0737 0.673653 C 43.505001 0.242321 44.09 0 44.700001 0 C 45.310001 0 45.895 0.242321 46.326302 0.673653 C 46.757702 1.104988 47 1.689999 47 2.299999 Z"/>
    <text id="Perskripsi" visibility="hidden" xml:space="preserve" x="56" y="39" font-family="Outfit" font-size="33" font-weight="600" fill="#2f2e2e">Perskripsi</text>
</svg>
